<?xml version="1.0" encoding="utf-8" standalone="no"?>
<!DOCTYPE svg PUBLIC "-//W3C//DTD SVG 1.1//EN"
  "http://www.w3.org/Graphics/SVG/1.1/DTD/svg11.dtd">
<!-- Created with matplotlib (https://matplotlib.org/) -->
<svg height="108pt" version="1.1" viewBox="0 0 180 108" width="180pt" xmlns="http://www.w3.org/2000/svg" xmlns:xlink="http://www.w3.org/1999/xlink">
 <defs>
  <style type="text/css">
*{stroke-linecap:butt;stroke-linejoin:round;white-space:pre;}
  </style>
 </defs>
 <g id="figure_1">
  <g id="patch_1">
   <path d="M 0 108 
L 180 108 
L 180 0 
L 0 0 
z
" style="fill:#ffffff;"/>
  </g>
  <g id="axes_1">
   <g id="patch_2">
    <path d="M 22.5 86.346 
L 162 86.346 
L 162 12.96 
L 22.5 12.96 
z
" style="fill:#ffffff;"/>
   </g>
   <g id="patch_3">
    <path clip-path="url(#p8b6ddff12d)" d="M 28.840909 86.346 
L 32.570856 86.346 
L 32.570856 86.309333 
L 28.840909 86.309333 
z
" style="fill:#0072b2;"/>
   </g>
   <g id="patch_4">
    <path clip-path="url(#p8b6ddff12d)" d="M 54.950535 86.346 
L 58.680481 86.346 
L 58.680481 86.302576 
L 54.950535 86.302576 
z
" style="fill:#0072b2;"/>
   </g>
   <g id="patch_5">
    <path clip-path="url(#p8b6ddff12d)" d="M 81.06016 86.346 
L 84.790107 86.346 
L 84.790107 86.299367 
L 81.06016 86.299367 
z
" style="fill:#0072b2;"/>
   </g>
   <g id="patch_6">
    <path clip-path="url(#p8b6ddff12d)" d="M 107.169786 86.346 
L 110.899733 86.346 
L 110.899733 86.295877 
L 107.169786 86.295877 
z
" style="fill:#0072b2;"/>
   </g>
   <g id="patch_7">
    <path clip-path="url(#p8b6ddff12d)" d="M 133.279412 86.346 
L 137.009358 86.346 
L 137.009358 85.311991 
L 133.279412 85.311991 
z
" style="fill:#0072b2;"/>
   </g>
   <g id="patch_8">
    <path clip-path="url(#p8b6ddff12d)" d="M 32.570856 86.346 
L 36.300802 86.346 
L 36.300802 86.081801 
L 32.570856 86.081801 
z
" style="fill:#009e73;"/>
   </g>
   <g id="patch_9">
    <path clip-path="url(#p8b6ddff12d)" d="M 58.680481 86.346 
L 62.410428 86.346 
L 62.410428 86.022587 
L 58.680481 86.022587 
z
" style="fill:#009e73;"/>
   </g>
   <g id="patch_10">
    <path clip-path="url(#p8b6ddff12d)" d="M 84.790107 86.346 
L 88.520053 86.346 
L 88.520053 85.973345 
L 84.790107 85.973345 
z
" style="fill:#009e73;"/>
   </g>
   <g id="patch_11">
    <path clip-path="url(#p8b6ddff12d)" d="M 110.899733 86.346 
L 114.629679 86.346 
L 114.629679 85.929689 
L 110.899733 85.929689 
z
" style="fill:#009e73;"/>
   </g>
   <g id="patch_12">
    <path clip-path="url(#p8b6ddff12d)" d="M 137.009358 86.346 
L 140.739305 86.346 
L 140.739305 84.543587 
L 137.009358 84.543587 
z
" style="fill:#009e73;"/>
   </g>
   <g id="patch_13">
    <path clip-path="url(#p8b6ddff12d)" d="M 36.300802 86.346 
L 40.030749 86.346 
L 40.030749 84.153974 
L 36.300802 84.153974 
z
" style="fill:#d55e00;"/>
   </g>
   <g id="patch_14">
    <path clip-path="url(#p8b6ddff12d)" d="M 62.410428 86.346 
L 66.140374 86.346 
L 66.140374 75.862805 
L 62.410428 75.862805 
z
" style="fill:#d55e00;"/>
   </g>
   <g id="patch_15">
    <path clip-path="url(#p8b6ddff12d)" d="M 88.520053 86.346 
L 92.25 86.346 
L 92.25 69.78962 
L 88.520053 69.78962 
z
" style="fill:#d55e00;"/>
   </g>
   <g id="patch_16">
    <path clip-path="url(#p8b6ddff12d)" d="M 114.629679 86.346 
L 118.359626 86.346 
L 118.359626 66.215294 
L 114.629679 66.215294 
z
" style="fill:#d55e00;"/>
   </g>
   <g id="patch_17">
    <path clip-path="url(#p8b6ddff12d)" d="M 140.739305 86.346 
L 144.469251 86.346 
L 144.469251 36.094114 
L 140.739305 36.094114 
z
" style="fill:#d55e00;"/>
   </g>
   <g id="patch_18">
    <path clip-path="url(#p8b6ddff12d)" d="M 40.030749 86.346 
L 43.760695 86.346 
L 43.760695 82.330721 
L 40.030749 82.330721 
z
" style="fill:#cc79a7;"/>
   </g>
   <g id="patch_19">
    <path clip-path="url(#p8b6ddff12d)" d="M 66.140374 86.346 
L 69.870321 86.346 
L 69.870321 68.361839 
L 66.140374 68.361839 
z
" style="fill:#cc79a7;"/>
   </g>
   <g id="patch_20">
    <path clip-path="url(#p8b6ddff12d)" d="M 92.25 86.346 
L 95.979947 86.346 
L 95.979947 58.865329 
L 92.25 58.865329 
z
" style="fill:#cc79a7;"/>
   </g>
   <g id="patch_21">
    <path clip-path="url(#p8b6ddff12d)" d="M 118.359626 86.346 
L 122.089572 86.346 
L 122.089572 53.474541 
L 118.359626 53.474541 
z
" style="fill:#cc79a7;"/>
   </g>
   <g id="patch_22">
    <path clip-path="url(#p8b6ddff12d)" d="M 144.469251 86.346 
L 148.199198 86.346 
L 148.199198 25.925153 
L 144.469251 25.925153 
z
" style="fill:#cc79a7;"/>
   </g>
   <g id="patch_23">
    <path clip-path="url(#p8b6ddff12d)" d="M 43.760695 86.346 
L 47.490642 86.346 
L 47.490642 72.744025 
L 43.760695 72.744025 
z
" style="fill:#f0e442;"/>
   </g>
   <g id="patch_24">
    <path clip-path="url(#p8b6ddff12d)" d="M 69.870321 86.346 
L 73.600267 86.346 
L 73.600267 48.387312 
L 69.870321 48.387312 
z
" style="fill:#f0e442;"/>
   </g>
   <g id="patch_25">
    <path clip-path="url(#p8b6ddff12d)" d="M 95.979947 86.346 
L 99.709893 86.346 
L 99.709893 38.314936 
L 95.979947 38.314936 
z
" style="fill:#f0e442;"/>
   </g>
   <g id="patch_26">
    <path clip-path="url(#p8b6ddff12d)" d="M 122.089572 86.346 
L 125.819519 86.346 
L 125.819519 34.469658 
L 122.089572 34.469658 
z
" style="fill:#f0e442;"/>
   </g>
   <g id="patch_27">
    <path clip-path="url(#p8b6ddff12d)" d="M 148.199198 86.346 
L 151.929144 86.346 
L 151.929144 20.099601 
L 148.199198 20.099601 
z
" style="fill:#f0e442;"/>
   </g>
   <g id="patch_28">
    <path clip-path="url(#p8b6ddff12d)" d="M 47.490642 86.346 
L 51.220588 86.346 
L 51.220588 73.053772 
L 47.490642 73.053772 
z
" style="fill:#56b4e9;"/>
   </g>
   <g id="patch_29">
    <path clip-path="url(#p8b6ddff12d)" d="M 73.600267 86.346 
L 77.330214 86.346 
L 77.330214 46.777654 
L 73.600267 46.777654 
z
" style="fill:#56b4e9;"/>
   </g>
   <g id="patch_30">
    <path clip-path="url(#p8b6ddff12d)" d="M 99.709893 86.346 
L 103.43984 86.346 
L 103.43984 34.265477 
L 99.709893 34.265477 
z
" style="fill:#56b4e9;"/>
   </g>
   <g id="patch_31">
    <path clip-path="url(#p8b6ddff12d)" d="M 125.819519 86.346 
L 129.549465 86.346 
L 129.549465 28.550453 
L 125.819519 28.550453 
z
" style="fill:#56b4e9;"/>
   </g>
   <g id="patch_32">
    <path clip-path="url(#p8b6ddff12d)" d="M 151.929144 86.346 
L 155.659091 86.346 
L 155.659091 16.454571 
L 151.929144 16.454571 
z
" style="fill:#56b4e9;"/>
   </g>
   <g id="matplotlib.axis_1">
    <g id="xtick_1">
     <g id="line2d_1">
      <defs>
       <path d="M 0 0 
L 0 3.5 
" id="mcc0c3cf2f3" style="stroke:#000000;stroke-width:0.8;"/>
      </defs>
      <g>
       <use style="stroke:#000000;stroke-width:0.8;" x="40.030749" xlink:href="#mcc0c3cf2f3" y="86.346"/>
      </g>
     </g>
     <g id="text_1">
      <!-- 1-grams -->
      <defs>
       <path d="M 29.59375 67.09375 
Q 29.78125 66.84375 29.796875 66.71875 
Q 29.828125 66.609375 29.828125 66.15625 
L 29.828125 7.375 
Q 29.828125 3.609375 31.828125 2.578125 
Q 33.84375 1.5625 39.3125 1.375 
L 39.3125 0 
L 11.765625 0 
L 11.765625 1.46875 
Q 17.671875 1.765625 19.484375 3.078125 
Q 21.296875 4.390625 21.296875 8.796875 
L 21.296875 54 
Q 21.296875 56.34375 20.703125 57.5625 
Q 20.125 58.796875 18.171875 58.796875 
Q 16.890625 58.796875 14.859375 58.078125 
Q 12.84375 57.375 11.078125 56.59375 
L 11.078125 57.953125 
L 29 67.09375 
L 29.59375 67.09375 
z
" id="Times-Roman-49"/>
       <path d="M 3.90625 25.6875 
L 28.46875 25.6875 
L 28.46875 19.4375 
L 3.90625 19.4375 
z
" id="Times-Roman-45"/>
       <path d="M 9.8125 -9.03125 
Q 9.8125 -13.140625 14.421875 -14.703125 
Q 19.046875 -16.265625 25 -16.265625 
Q 33.109375 -16.265625 38.1875 -13.453125 
Q 43.265625 -10.640625 43.265625 -6.546875 
Q 43.265625 -3.265625 39.15625 -2.203125 
Q 36.625 -1.5625 29.546875 -1.46875 
Q 27.734375 -1.421875 25.734375 -1.34375 
Q 23.734375 -1.265625 22.078125 -1.171875 
Q 21 -1.125 18.609375 -0.78125 
Q 16.21875 -0.4375 15.046875 -0.203125 
Q 14.453125 -0.203125 12.15625 -3.265625 
Q 9.8125 -6.390625 9.8125 -9.03125 
z
M 16.15625 16.40625 
Q 11.71875 17.875 9.25 21.625 
Q 6.78125 25.390625 6.78125 30.078125 
Q 6.78125 35.796875 11.328125 40.921875 
Q 15.875 46.046875 24.171875 46.046875 
Q 27.734375 46.046875 32.03125 44.359375 
Q 36.328125 42.671875 40.28125 42.671875 
Q 41.3125 42.671875 43.375 42.75 
Q 45.453125 42.828125 46.390625 42.828125 
L 46.96875 42.828125 
L 46.96875 38.875 
L 38.53125 38.875 
Q 39.40625 36.8125 39.890625 35.296875 
Q 40.71875 32.46875 40.71875 29.9375 
Q 40.71875 24.359375 36.109375 19.703125 
Q 31.5 15.046875 23.6875 15.046875 
Q 22.46875 15.046875 19.28125 15.484375 
Q 17.875 15.484375 15.546875 13.078125 
Q 13.234375 10.6875 13.234375 9.1875 
Q 13.234375 7.625 16.65625 6.890625 
Q 18.890625 6.390625 21.625 6.390625 
Q 34.1875 6.390625 38.671875 4.984375 
Q 46.046875 2.6875 46.046875 -4.890625 
Q 46.046875 -12.59375 37.421875 -17.1875 
Q 28.8125 -21.78125 20.015625 -21.78125 
Q 12.015625 -21.78125 7.328125 -18.53125 
Q 2.640625 -15.28125 2.640625 -11.71875 
Q 2.640625 -9.96875 3.875 -8.28125 
Q 5.125 -6.59375 8.796875 -3.265625 
L 12.015625 -0.390625 
L 12.59375 0.203125 
Q 10.359375 1.078125 9.234375 1.90625 
Q 7.28125 3.421875 7.28125 5.375 
Q 7.28125 7.171875 8.953125 9.34375 
Q 10.640625 11.53125 16.15625 16.40625 
z
M 25.4375 17.390625 
Q 28.125 17.390625 29.9375 18.84375 
Q 32.859375 21.1875 32.859375 27 
Q 32.859375 31.640625 30.484375 37.453125 
Q 28.125 43.265625 22.609375 43.265625 
Q 17.828125 43.265625 16.015625 38.71875 
Q 15.09375 36.328125 15.09375 32.8125 
Q 15.09375 26.859375 17.96875 22.125 
Q 20.84375 17.390625 25.4375 17.390625 
z
M 25.046875 46.046875 
z
" id="Times-Roman-103"/>
       <path d="M 0.4375 1.609375 
Q 4.9375 2 6.390625 3.1875 
Q 7.859375 4.390625 7.859375 8.296875 
L 7.859375 30.328125 
Q 7.859375 35.15625 6.953125 37.234375 
Q 6.0625 39.3125 3.65625 39.3125 
Q 3.171875 39.3125 2.359375 39.1875 
Q 1.5625 39.0625 0.6875 38.875 
L 0.6875 40.484375 
Q 3.46875 41.453125 6.390625 42.46875 
Q 9.328125 43.5 10.453125 43.953125 
Q 12.890625 44.875 15.484375 46.046875 
Q 15.828125 46.046875 15.890625 45.796875 
Q 15.96875 45.5625 15.96875 44.78125 
L 15.96875 36.765625 
Q 19.09375 41.109375 22 43.546875 
Q 24.90625 46 28.03125 46 
Q 30.515625 46 32.078125 44.5 
Q 33.640625 43.015625 33.640625 40.765625 
Q 33.640625 38.765625 32.4375 37.390625 
Q 31.25 36.03125 29.4375 36.03125 
Q 27.59375 36.03125 25.703125 37.734375 
Q 23.828125 39.453125 22.75 39.453125 
Q 21.046875 39.453125 18.546875 36.6875 
Q 16.0625 33.9375 16.0625 31 
L 16.0625 8.984375 
Q 16.0625 4.78125 18.015625 3.140625 
Q 19.96875 1.515625 24.515625 1.609375 
L 24.515625 0 
L 0.4375 0 
z
" id="Times-Roman-114"/>
       <path d="M 28.65625 27.046875 
Q 23.046875 25.203125 19.390625 22.953125 
Q 12.359375 18.609375 12.359375 13.09375 
Q 12.359375 8.640625 15.28125 6.546875 
Q 17.1875 5.171875 19.53125 5.171875 
Q 22.75 5.171875 25.703125 6.984375 
Q 28.65625 8.796875 28.65625 11.578125 
z
M 3.65625 9.71875 
Q 3.65625 16.796875 10.75 21.53125 
Q 15.234375 24.46875 28.65625 29.5 
L 28.65625 33.640625 
Q 28.65625 38.625 27.6875 40.578125 
Q 26.03125 43.84375 20.796875 43.84375 
Q 18.3125 43.84375 16.0625 42.578125 
Q 13.8125 41.265625 13.8125 38.96875 
Q 13.8125 38.375 14.0625 36.984375 
Q 14.3125 35.59375 14.3125 35.203125 
Q 14.3125 32.46875 12.5 31.390625 
Q 11.46875 30.765625 10.0625 30.765625 
Q 7.859375 30.765625 6.6875 32.203125 
Q 5.515625 33.640625 5.515625 35.40625 
Q 5.515625 38.8125 9.734375 42.546875 
Q 13.96875 46.296875 22.125 46.296875 
Q 31.59375 46.296875 34.96875 40.140625 
Q 36.765625 36.765625 36.765625 30.328125 
L 36.765625 10.75 
Q 36.765625 7.90625 37.15625 6.84375 
Q 37.796875 4.9375 39.796875 4.9375 
Q 40.921875 4.9375 41.65625 5.265625 
Q 42.390625 5.609375 44.1875 6.9375 
L 44.1875 4.390625 
Q 42.625 2.484375 40.828125 1.265625 
Q 38.09375 -0.59375 35.25 -0.59375 
Q 31.9375 -0.59375 30.4375 1.5625 
Q 28.953125 3.71875 28.8125 6.6875 
Q 25.09375 3.46875 22.46875 1.90625 
Q 18.015625 -0.734375 14.015625 -0.734375 
Q 9.8125 -0.734375 6.734375 2.21875 
Q 3.65625 5.171875 3.65625 9.71875 
z
M 22.265625 46.296875 
z
" id="Times-Roman-97"/>
       <path d="M 1.609375 1.265625 
Q 5.421875 1.609375 6.6875 2.546875 
Q 8.640625 3.953125 8.640625 8.203125 
L 8.640625 33.453125 
Q 8.640625 37.0625 7.6875 38.1875 
Q 6.734375 39.3125 4.546875 39.3125 
Q 3.515625 39.3125 3 39.203125 
Q 2.484375 39.109375 1.8125 38.875 
L 1.8125 40.578125 
L 5.328125 41.75 
Q 7.234375 42.390625 11.578125 44.046875 
Q 15.921875 45.703125 16.15625 45.703125 
Q 16.40625 45.703125 16.453125 45.453125 
Q 16.5 45.21875 16.5 44.53125 
L 16.5 37.9375 
Q 21.34375 42.328125 24.859375 44.015625 
Q 28.375 45.703125 32.078125 45.703125 
Q 37.109375 45.703125 40.09375 42.28125 
Q 41.65625 40.4375 42.671875 37.25 
Q 46.296875 40.921875 48.96875 42.671875 
Q 53.609375 45.703125 58.453125 45.703125 
Q 66.3125 45.703125 68.953125 39.3125 
Q 70.453125 35.6875 70.453125 27.875 
L 70.453125 7.625 
Q 70.453125 4.15625 71.984375 2.90625 
Q 73.53125 1.65625 77.546875 1.265625 
L 77.546875 0 
L 55.515625 0 
L 55.515625 1.375 
Q 59.765625 1.765625 61.109375 3.078125 
Q 62.453125 4.390625 62.453125 8.453125 
L 62.453125 29.5 
Q 62.453125 34.234375 61.421875 36.46875 
Q 59.625 40.484375 54.34375 40.484375 
Q 51.171875 40.484375 48.046875 38.375 
Q 46.234375 37.15625 43.609375 34.46875 
L 43.609375 9.46875 
Q 43.609375 5.515625 45 3.46875 
Q 46.390625 1.421875 50.875 1.265625 
L 50.875 0 
L 28.46875 0 
L 28.46875 1.265625 
Q 33.109375 1.859375 34.375 3.515625 
Q 35.640625 5.171875 35.640625 11.671875 
L 35.640625 25.34375 
Q 35.640625 32.859375 34.671875 35.6875 
Q 33.0625 40.484375 27.828125 40.484375 
Q 24.859375 40.484375 21.96875 38.84375 
Q 19.09375 37.203125 16.890625 34.578125 
L 16.890625 7.859375 
Q 16.890625 4.15625 18.1875 2.734375 
Q 19.484375 1.3125 23.828125 1.265625 
L 23.828125 0 
L 1.609375 0 
z
" id="Times-Roman-109"/>
       <path d="M 5.171875 15.375 
L 6.78125 15.375 
Q 7.90625 9.8125 9.8125 6.84375 
Q 13.234375 1.375 19.828125 1.375 
Q 23.484375 1.375 25.609375 3.390625 
Q 27.734375 5.421875 27.734375 8.640625 
Q 27.734375 10.6875 26.515625 12.59375 
Q 25.296875 14.5 22.21875 16.3125 
L 16.75 19.4375 
Q 10.75 22.65625 7.90625 25.921875 
Q 5.078125 29.203125 5.078125 33.640625 
Q 5.078125 39.109375 8.984375 42.625 
Q 12.890625 46.140625 18.796875 46.140625 
Q 21.390625 46.140625 24.484375 45.15625 
Q 27.59375 44.1875 27.984375 44.1875 
Q 28.859375 44.1875 29.25 44.421875 
Q 29.640625 44.671875 29.9375 45.21875 
L 31.109375 45.21875 
L 31.453125 31.59375 
L 29.9375 31.59375 
Q 28.953125 36.328125 27.296875 38.96875 
Q 24.265625 43.84375 18.5625 43.84375 
Q 15.140625 43.84375 13.1875 41.75 
Q 11.234375 39.65625 11.234375 36.8125 
Q 11.234375 32.328125 17.96875 28.8125 
L 24.421875 25.34375 
Q 34.8125 19.671875 34.8125 12.15625 
Q 34.8125 6.390625 30.484375 2.734375 
Q 26.171875 -0.921875 19.1875 -0.921875 
Q 16.265625 -0.921875 12.546875 0.046875 
Q 8.84375 1.03125 8.15625 1.03125 
Q 7.5625 1.03125 7.125 0.609375 
Q 6.6875 0.203125 6.453125 -0.390625 
L 5.171875 -0.390625 
z
M 19.484375 46.140625 
z
" id="Times-Roman-115"/>
      </defs>
      <g transform="translate(28.659992 98.104237)scale(0.0694 -0.0694)">
       <use xlink:href="#Times-Roman-49"/>
       <use x="50" xlink:href="#Times-Roman-45"/>
       <use x="83.300781" xlink:href="#Times-Roman-103"/>
       <use x="133.300781" xlink:href="#Times-Roman-114"/>
       <use x="166.601562" xlink:href="#Times-Roman-97"/>
       <use x="210.986328" xlink:href="#Times-Roman-109"/>
       <use x="288.769531" xlink:href="#Times-Roman-115"/>
      </g>
     </g>
    </g>
    <g id="xtick_2">
     <g id="line2d_2">
      <g>
       <use style="stroke:#000000;stroke-width:0.8;" x="66.140374" xlink:href="#mcc0c3cf2f3" y="86.346"/>
      </g>
     </g>
     <g id="text_2">
      <!-- 2-grams -->
      <defs>
       <path d="M 2.984375 1.125 
Q 20.84375 19.671875 27.234375 28.359375 
Q 33.640625 37.0625 33.640625 45.3125 
Q 33.640625 52.546875 29.734375 56.328125 
Q 25.828125 60.109375 20.40625 60.109375 
Q 13.71875 60.109375 9.578125 55.21875 
Q 7.28125 52.546875 5.171875 46.96875 
L 3.078125 47.40625 
Q 5.515625 58.640625 11.34375 63.015625 
Q 17.1875 67.390625 23.875 67.390625 
Q 32.125 67.390625 37.21875 62.1875 
Q 42.328125 56.984375 42.328125 49.46875 
Q 42.328125 41.453125 36.8125 34.03125 
Q 31.296875 26.609375 12.84375 7.625 
L 35.25 7.625 
Q 39.9375 7.625 41.84375 8.734375 
Q 43.75 9.859375 46.140625 14.203125 
L 47.40625 13.625 
L 42 0 
L 2.984375 0 
z
" id="Times-Roman-50"/>
      </defs>
      <g transform="translate(54.769618 98.104237)scale(0.0694 -0.0694)">
       <use xlink:href="#Times-Roman-50"/>
       <use x="50" xlink:href="#Times-Roman-45"/>
       <use x="83.300781" xlink:href="#Times-Roman-103"/>
       <use x="133.300781" xlink:href="#Times-Roman-114"/>
       <use x="166.601562" xlink:href="#Times-Roman-97"/>
       <use x="210.986328" xlink:href="#Times-Roman-109"/>
       <use x="288.769531" xlink:href="#Times-Roman-115"/>
      </g>
     </g>
    </g>
    <g id="xtick_3">
     <g id="line2d_3">
      <g>
       <use style="stroke:#000000;stroke-width:0.8;" x="92.25" xlink:href="#mcc0c3cf2f3" y="86.346"/>
      </g>
     </g>
     <g id="text_3">
      <!-- 3-grams -->
      <defs>
       <path d="M 7.765625 8.5 
Q 10.453125 8.5 14.859375 5.71875 
Q 19.28125 2.9375 22.359375 2.9375 
Q 29.203125 2.9375 32.515625 7.546875 
Q 35.84375 12.15625 35.84375 17.578125 
Q 35.84375 22.796875 33.15625 26.765625 
Q 28.609375 33.453125 17.828125 33.453125 
Q 17.1875 33.453125 16.59375 33.421875 
Q 16.015625 33.40625 15.234375 33.296875 
L 15.140625 34.578125 
Q 22.953125 37.40625 27.4375 41.0625 
Q 31.9375 44.734375 31.9375 50.734375 
Q 31.9375 56.0625 28.390625 58.84375 
Q 24.859375 61.625 20.3125 61.625 
Q 14.9375 61.625 10.84375 57.671875 
Q 8.59375 55.515625 6 51.03125 
L 4.5 51.375 
Q 6.453125 58.796875 11.765625 63.234375 
Q 17.09375 67.671875 24.078125 67.671875 
Q 31.546875 67.671875 35.625 63.5625 
Q 39.703125 59.46875 39.703125 54.109375 
Q 39.703125 49.359375 36.328125 45.40625 
Q 34.421875 43.171875 30.421875 40.375 
Q 35.109375 38.375 37.9375 35.6875 
Q 43.265625 30.5625 43.265625 22.703125 
Q 43.265625 13.421875 35.953125 6.34375 
Q 28.65625 -0.734375 15.1875 -0.734375 
Q 9.1875 -0.734375 6.765625 1.046875 
Q 4.34375 2.828125 4.34375 4.890625 
Q 4.34375 6.15625 5.140625 7.328125 
Q 5.953125 8.5 7.765625 8.5 
z
" id="Times-Roman-51"/>
      </defs>
      <g transform="translate(80.879244 98.104237)scale(0.0694 -0.0694)">
       <use xlink:href="#Times-Roman-51"/>
       <use x="50" xlink:href="#Times-Roman-45"/>
       <use x="83.300781" xlink:href="#Times-Roman-103"/>
       <use x="133.300781" xlink:href="#Times-Roman-114"/>
       <use x="166.601562" xlink:href="#Times-Roman-97"/>
       <use x="210.986328" xlink:href="#Times-Roman-109"/>
       <use x="288.769531" xlink:href="#Times-Roman-115"/>
      </g>
     </g>
    </g>
    <g id="xtick_4">
     <g id="line2d_4">
      <g>
       <use style="stroke:#000000;stroke-width:0.8;" x="118.359626" xlink:href="#mcc0c3cf2f3" y="86.346"/>
      </g>
     </g>
     <g id="text_4">
      <!-- 4-grams -->
      <defs>
       <path d="M 29.15625 57.03125 
L 5.171875 23.140625 
L 29.15625 23.140625 
z
M 32.375 67.09375 
L 37.015625 67.09375 
L 37.015625 23.140625 
L 47.21875 23.140625 
L 47.21875 16.65625 
L 37.015625 16.65625 
L 37.015625 0 
L 29.25 0 
L 29.25 16.65625 
L 1.125 16.65625 
L 1.125 23.140625 
z
" id="Times-Roman-52"/>
      </defs>
      <g transform="translate(106.988869 98.104237)scale(0.0694 -0.0694)">
       <use xlink:href="#Times-Roman-52"/>
       <use x="50" xlink:href="#Times-Roman-45"/>
       <use x="83.300781" xlink:href="#Times-Roman-103"/>
       <use x="133.300781" xlink:href="#Times-Roman-114"/>
       <use x="166.601562" xlink:href="#Times-Roman-97"/>
       <use x="210.986328" xlink:href="#Times-Roman-109"/>
       <use x="288.769531" xlink:href="#Times-Roman-115"/>
      </g>
     </g>
    </g>
    <g id="xtick_5">
     <g id="line2d_5">
      <g>
       <use style="stroke:#000000;stroke-width:0.8;" x="144.469251" xlink:href="#mcc0c3cf2f3" y="86.346"/>
      </g>
     </g>
     <g id="text_5">
      <!-- sentences -->
      <defs>
       <path d="M 22.90625 45.796875 
Q 29.78125 45.796875 34.953125 41.03125 
Q 40.140625 36.28125 40.140625 27.546875 
L 9.125 27.546875 
Q 9.625 16.21875 14.25 11.03125 
Q 18.890625 5.859375 25.25 5.859375 
Q 30.375 5.859375 33.890625 8.546875 
Q 37.40625 11.234375 40.375 16.15625 
L 42.09375 15.578125 
Q 40.09375 9.375 34.59375 4.09375 
Q 29.109375 -1.171875 21.140625 -1.171875 
Q 11.96875 -1.171875 6.953125 5.765625 
Q 1.953125 12.703125 1.953125 21.734375 
Q 1.953125 31.546875 7.765625 38.671875 
Q 13.578125 45.796875 22.90625 45.796875 
z
M 20.0625 42.234375 
Q 14.5 42.234375 11.578125 37.3125 
Q 10.015625 34.671875 9.328125 30.671875 
L 29.9375 30.671875 
Q 29.390625 35.546875 28.078125 37.9375 
Q 25.6875 42.234375 20.0625 42.234375 
z
M 22.265625 45.796875 
z
" id="Times-Roman-101"/>
       <path d="M 1.8125 1.375 
Q 5.28125 1.8125 6.671875 3.09375 
Q 8.0625 4.390625 8.0625 8.890625 
L 8.0625 33.640625 
Q 8.0625 36.765625 7.46875 38.03125 
Q 6.546875 39.890625 3.65625 39.890625 
Q 3.21875 39.890625 2.75 39.84375 
Q 2.296875 39.796875 1.609375 39.703125 
L 1.609375 41.40625 
Q 3.609375 42 11.078125 44.4375 
L 15.671875 45.953125 
Q 16.015625 45.953125 16.078125 45.703125 
Q 16.15625 45.453125 16.15625 45.015625 
L 16.15625 37.84375 
Q 20.65625 42.046875 23.1875 43.609375 
Q 27 46 31.109375 46 
Q 34.421875 46 37.15625 44.09375 
Q 42.4375 40.375 42.4375 30.859375 
L 42.4375 8.0625 
Q 42.4375 4.546875 43.84375 2.984375 
Q 45.265625 1.421875 48.578125 1.375 
L 48.578125 0 
L 27.734375 0 
L 27.734375 1.375 
Q 31.296875 1.859375 32.703125 3.34375 
Q 34.125 4.828125 34.125 9.8125 
L 34.125 30.671875 
Q 34.125 34.859375 32.5625 37.609375 
Q 31 40.375 26.8125 40.375 
Q 23.921875 40.375 20.953125 38.421875 
Q 19.28125 37.3125 16.65625 34.71875 
L 16.65625 7.375 
Q 16.65625 3.859375 18.21875 2.65625 
Q 19.78125 1.46875 23.140625 1.375 
L 23.140625 0 
L 1.8125 0 
z
M 25.046875 46 
z
" id="Times-Roman-110"/>
       <path d="M 25.4375 45.015625 
L 25.4375 41.5 
L 15.484375 41.5 
L 15.375 13.375 
Q 15.375 9.671875 16.015625 7.765625 
Q 17.1875 4.390625 20.609375 4.390625 
Q 22.359375 4.390625 23.65625 5.21875 
Q 24.953125 6.0625 26.609375 7.859375 
L 27.875 6.78125 
L 26.8125 5.328125 
Q 24.265625 1.90625 21.4375 0.484375 
Q 18.609375 -0.921875 15.96875 -0.921875 
Q 10.203125 -0.921875 8.15625 4.203125 
Q 7.03125 6.984375 7.03125 11.921875 
L 7.03125 41.5 
L 1.703125 41.5 
Q 1.46875 41.65625 1.34375 41.796875 
Q 1.21875 41.9375 1.21875 42.1875 
Q 1.21875 42.671875 1.4375 42.9375 
Q 1.65625 43.21875 2.828125 44.1875 
Q 6.203125 46.96875 7.6875 48.703125 
Q 9.1875 50.4375 14.703125 57.859375 
Q 15.328125 57.859375 15.453125 57.765625 
Q 15.578125 57.671875 15.578125 57.03125 
L 15.578125 45.015625 
z
" id="Times-Roman-116"/>
       <path d="M 24.859375 46.046875 
Q 30.953125 46.046875 35.375 42.890625 
Q 39.796875 39.75 39.796875 35.984375 
Q 39.796875 34.375 38.671875 32.984375 
Q 37.546875 31.59375 35.203125 31.59375 
Q 33.5 31.59375 32.203125 32.765625 
Q 30.90625 33.9375 30.328125 36.1875 
L 29.734375 38.53125 
Q 29.109375 41.109375 27.546875 42.1875 
Q 25.921875 43.21875 23.296875 43.21875 
Q 17.71875 43.21875 13.890625 38.359375 
Q 10.0625 33.5 10.0625 25.4375 
Q 10.0625 18.0625 14.28125 12.203125 
Q 18.5 6.34375 25.6875 6.34375 
Q 30.765625 6.34375 34.71875 9.671875 
Q 36.96875 11.578125 39.796875 15.71875 
L 41.15625 14.890625 
Q 38.375 9.03125 35.296875 5.609375 
Q 29.390625 -0.921875 21.625 -0.921875 
Q 14.015625 -0.921875 8.15625 5.078125 
Q 2.296875 11.078125 2.296875 21.390625 
Q 2.296875 31.5 8.6875 38.765625 
Q 15.09375 46.046875 24.859375 46.046875 
z
M 22.703125 46.046875 
z
" id="Times-Roman-99"/>
      </defs>
      <g transform="translate(131.172645 98.104237)scale(0.0694 -0.0694)">
       <use xlink:href="#Times-Roman-115"/>
       <use x="38.916016" xlink:href="#Times-Roman-101"/>
       <use x="83.300781" xlink:href="#Times-Roman-110"/>
       <use x="133.300781" xlink:href="#Times-Roman-116"/>
       <use x="161.083984" xlink:href="#Times-Roman-101"/>
       <use x="205.46875" xlink:href="#Times-Roman-110"/>
       <use x="255.46875" xlink:href="#Times-Roman-99"/>
       <use x="299.853516" xlink:href="#Times-Roman-101"/>
       <use x="344.238281" xlink:href="#Times-Roman-115"/>
      </g>
     </g>
    </g>
   </g>
   <g id="matplotlib.axis_2">
    <g id="ytick_1">
     <g id="line2d_6">
      <defs>
       <path d="M 0 0 
L -3.5 0 
" id="md82b76a9cf" style="stroke:#000000;stroke-width:0.8;"/>
      </defs>
      <g>
       <use style="stroke:#000000;stroke-width:0.8;" x="22.5" xlink:href="#md82b76a9cf" y="86.346"/>
      </g>
     </g>
     <g id="text_6">
      <!-- 0 -->
      <defs>
       <path d="M 23.921875 1.8125 
Q 31.109375 1.8125 33.78125 9.671875 
Q 36.46875 17.53125 36.46875 32.421875 
Q 36.46875 44.28125 34.859375 51.375 
Q 31.84375 64.546875 23.53125 64.546875 
Q 15.234375 64.546875 12.15625 50.984375 
Q 10.546875 43.75 10.546875 31.9375 
Q 10.546875 20.84375 12.203125 14.203125 
Q 15.328125 1.8125 23.921875 1.8125 
z
M 23.78125 67.1875 
Q 35.015625 67.1875 41.21875 55.421875 
Q 46.140625 45.90625 46.140625 33.546875 
Q 46.140625 23.828125 43.109375 15.234375 
Q 37.40625 -0.921875 23.34375 -0.921875 
Q 13.71875 -0.921875 7.515625 7.8125 
Q 0.875 17.140625 0.875 33.15625 
Q 0.875 45.75 5.328125 54.828125 
Q 11.328125 67.1875 23.78125 67.1875 
z
" id="Times-Roman-48"/>
      </defs>
      <g transform="translate(12.03 88.725119)scale(0.0694 -0.0694)">
       <use xlink:href="#Times-Roman-48"/>
      </g>
     </g>
    </g>
    <g id="ytick_2">
     <g id="line2d_7">
      <g>
       <use style="stroke:#000000;stroke-width:0.8;" x="22.5" xlink:href="#md82b76a9cf" y="68.283163"/>
      </g>
     </g>
     <g id="text_7">
      <!-- 25 -->
      <defs>
       <path d="M 7.46875 8.9375 
Q 10.25 8.9375 14.765625 5.78125 
Q 19.28125 2.640625 21.734375 2.640625 
Q 27.34375 2.640625 31.546875 7.59375 
Q 35.75 12.546875 35.75 19.78125 
Q 35.75 32.421875 22.265625 37.984375 
Q 14.796875 41.0625 8.34375 41.0625 
Q 7.28125 41.0625 7 41.140625 
Q 6.734375 41.21875 6.34375 41.65625 
Q 6.453125 42.046875 6.515625 42.3125 
Q 6.59375 42.578125 6.6875 42.828125 
L 17.328125 66.15625 
L 38.28125 66.15625 
Q 39.84375 66.15625 40.6875 66.6875 
Q 41.546875 67.234375 42.921875 68.703125 
L 43.703125 68.015625 
L 39.890625 58.984375 
Q 39.703125 58.546875 38.8125 58.421875 
Q 37.9375 58.296875 36.921875 58.296875 
L 18.015625 58.296875 
L 13.875 49.75 
Q 21.875 48.390625 25.59375 47.171875 
Q 31.6875 45.125 35.796875 41.109375 
Q 39.3125 37.640625 41.109375 33.3125 
Q 42.921875 29 42.921875 24.171875 
Q 42.921875 13.375 35.234375 6.140625 
Q 27.546875 -1.078125 15.765625 -1.078125 
Q 10.984375 -1.078125 8.0625 -0.140625 
Q 3.171875 1.375 3.171875 5.28125 
Q 3.171875 6.734375 4.21875 7.828125 
Q 5.28125 8.9375 7.46875 8.9375 
z
" id="Times-Roman-53"/>
      </defs>
      <g transform="translate(8.56 70.662281)scale(0.0694 -0.0694)">
       <use xlink:href="#Times-Roman-50"/>
       <use x="50" xlink:href="#Times-Roman-53"/>
      </g>
     </g>
    </g>
    <g id="ytick_3">
     <g id="line2d_8">
      <g>
       <use style="stroke:#000000;stroke-width:0.8;" x="22.5" xlink:href="#md82b76a9cf" y="50.220325"/>
      </g>
     </g>
     <g id="text_8">
      <!-- 50 -->
      <g transform="translate(8.56 52.599444)scale(0.0694 -0.0694)">
       <use xlink:href="#Times-Roman-53"/>
       <use x="50" xlink:href="#Times-Roman-48"/>
      </g>
     </g>
    </g>
    <g id="ytick_4">
     <g id="line2d_9">
      <g>
       <use style="stroke:#000000;stroke-width:0.8;" x="22.5" xlink:href="#md82b76a9cf" y="32.157488"/>
      </g>
     </g>
     <g id="text_9">
      <!-- 75 -->
      <defs>
       <path d="M 44.875 66.15625 
L 44.875 64.546875 
L 23.6875 -0.921875 
L 17.234375 -0.921875 
L 37.015625 58.796875 
L 15.71875 58.796875 
Q 10.984375 58.796875 8.90625 57.234375 
Q 6.84375 55.671875 3.65625 50.6875 
L 1.953125 51.46875 
Q 5.125 59.28125 5.875 61.109375 
Q 6.640625 62.9375 7.859375 66.15625 
z
" id="Times-Roman-55"/>
      </defs>
      <g transform="translate(8.56 34.536606)scale(0.0694 -0.0694)">
       <use xlink:href="#Times-Roman-55"/>
       <use x="50" xlink:href="#Times-Roman-53"/>
      </g>
     </g>
    </g>
    <g id="ytick_5">
     <g id="line2d_10">
      <g>
       <use style="stroke:#000000;stroke-width:0.8;" x="22.5" xlink:href="#md82b76a9cf" y="14.09465"/>
      </g>
     </g>
     <g id="text_10">
      <!-- 100 -->
      <g transform="translate(5.09 16.473769)scale(0.0694 -0.0694)">
       <use xlink:href="#Times-Roman-49"/>
       <use x="50" xlink:href="#Times-Roman-48"/>
       <use x="100" xlink:href="#Times-Roman-48"/>
      </g>
     </g>
    </g>
    <g id="text_11">
     <!-- % that are novel -->
     <defs>
      <path d="M 27.640625 66.15625 
Q 30.671875 66.15625 32.5625 65.375 
Q 33.59375 64.984375 34.578125 64.109375 
L 36.421875 62.453125 
Q 37.546875 61.46875 39.59375 61.078125 
Q 41.65625 60.6875 43.796875 60.6875 
Q 49.421875 60.6875 54.15625 63.421875 
Q 56.6875 64.84375 59.46875 67.578125 
L 63.375 67.578125 
L 24.859375 -1.421875 
L 20.125 -1.421875 
L 54.9375 61.078125 
Q 51.265625 59.375 49.453125 58.828125 
Q 47.65625 58.296875 44.671875 58.296875 
Q 42.046875 58.296875 40.140625 58.640625 
Q 38.921875 58.84375 37.703125 59.234375 
Q 38.09375 57.90625 38.234375 57.046875 
Q 38.375 56.203125 38.375 54.390625 
Q 38.375 45.609375 32.484375 37.234375 
Q 26.609375 28.859375 18.0625 28.859375 
Q 13.53125 28.859375 9.8125 32.328125 
Q 6.109375 35.796875 6.109375 42.484375 
Q 6.109375 50.53125 12.640625 58.34375 
Q 19.1875 66.15625 27.640625 66.15625 
z
M 59.078125 2.984375 
Q 65.046875 2.984375 69.796875 10.765625 
Q 74.5625 18.5625 74.5625 25.203125 
Q 74.5625 29.296875 72.5625 31.59375 
Q 70.5625 33.890625 67.328125 33.890625 
Q 61.53125 33.890625 56.984375 25 
Q 52.4375 16.109375 52.4375 9.625 
Q 52.4375 6.390625 54.296875 4.6875 
Q 56.15625 2.984375 59.078125 2.984375 
z
M 44.875 13.625 
Q 44.875 22.078125 51.578125 29.5625 
Q 58.296875 37.0625 66.453125 37.0625 
Q 70.703125 37.0625 73.96875 34.515625 
Q 77.25 31.984375 77.25 25.09375 
Q 77.25 17.71875 71.671875 8.78125 
Q 66.109375 -0.140625 56.984375 -0.140625 
Q 52.046875 -0.140625 48.453125 3.203125 
Q 44.875 6.546875 44.875 13.625 
z
M 19.875 32.28125 
Q 25.875 32.28125 30.859375 39.546875 
Q 35.84375 46.828125 35.84375 55.421875 
Q 35.84375 58.5 35.171875 59.375 
Q 34.515625 60.25 32.859375 60.640625 
Q 31.6875 60.9375 30.09375 62.078125 
Q 28.515625 63.234375 28.171875 63.234375 
Q 23.4375 63.234375 18.53125 54.765625 
Q 13.625 46.296875 13.625 39.15625 
Q 13.625 35.9375 15.15625 34.109375 
Q 16.703125 32.28125 19.875 32.28125 
z
" id="Times-Roman-37"/>
      <path id="Times-Roman-32"/>
      <path d="M 0.875 1.375 
Q 4.890625 1.90625 6.125 3.34375 
Q 7.375 4.78125 7.375 10.15625 
L 7.375 57.03125 
Q 7.375 59.765625 6.65625 61.0625 
Q 5.953125 62.359375 3.21875 62.359375 
Q 2.6875 62.359375 2.171875 62.28125 
Q 1.65625 62.203125 1.03125 62.109375 
L 1.03125 63.875 
Q 3.171875 64.5 6.3125 65.40625 
Q 9.46875 66.3125 10.6875 66.703125 
L 15.375 68.171875 
L 15.484375 67.828125 
L 15.484375 37.84375 
Q 18.5625 41.359375 20.953125 43.015625 
Q 25.25 45.953125 30.21875 45.953125 
Q 38.140625 45.953125 41.015625 39.3125 
Q 42.578125 35.796875 42.578125 30.078125 
L 42.578125 10.15625 
Q 42.578125 4.984375 43.765625 3.421875 
Q 44.96875 1.859375 48.6875 1.375 
L 48.6875 0 
L 27.546875 0 
L 27.546875 1.375 
Q 31.78125 1.953125 33 3.359375 
Q 34.234375 4.78125 34.234375 10.15625 
L 34.234375 29.9375 
Q 34.234375 34.671875 32.640625 37.59375 
Q 31.0625 40.53125 26.65625 40.53125 
Q 22.859375 40.53125 19.28125 37.796875 
Q 15.71875 35.0625 15.71875 34.234375 
L 15.71875 10.15625 
Q 15.71875 4.6875 16.984375 3.3125 
Q 18.265625 1.953125 22.40625 1.375 
L 22.40625 0 
L 0.875 0 
z
" id="Times-Roman-104"/>
      <path d="M 2.546875 22.65625 
Q 2.546875 32.375 8.71875 39.078125 
Q 14.890625 45.796875 24.609375 45.796875 
Q 34.28125 45.796875 40.625 39.453125 
Q 46.96875 33.109375 46.96875 22.5625 
Q 46.96875 12.84375 40.8125 5.65625 
Q 34.671875 -1.515625 24.90625 -1.515625 
Q 15.53125 -1.515625 9.03125 5.359375 
Q 2.546875 12.25 2.546875 22.65625 
z
M 23.25 42.875 
Q 19.390625 42.875 16.546875 40.328125 
Q 11.671875 35.890625 11.671875 25 
Q 11.671875 16.3125 15.59375 8.78125 
Q 19.53125 1.265625 26.515625 1.265625 
Q 31.984375 1.265625 34.9375 6.296875 
Q 37.890625 11.328125 37.890625 19.484375 
Q 37.890625 27.9375 34.125 35.40625 
Q 30.375 42.875 23.25 42.875 
z
M 25.046875 45.796875 
z
" id="Times-Roman-111"/>
      <path d="M 21.484375 45.359375 
L 21.484375 43.84375 
Q 18.953125 43.5625 17.890625 43.0625 
Q 16.84375 42.578125 16.84375 40.921875 
Q 16.84375 40.140625 17.0625 39.421875 
Q 17.28125 38.71875 17.828125 37.359375 
L 27.984375 12.109375 
L 36.765625 34.46875 
Q 37.40625 36.078125 37.96875 37.828125 
Q 38.53125 39.59375 38.53125 40.53125 
Q 38.53125 42.4375 36.71875 43.265625 
Q 35.640625 43.703125 33.796875 43.84375 
L 33.796875 45.359375 
L 47.65625 45.359375 
L 47.65625 43.84375 
Q 45.265625 43.65625 44.21875 42.265625 
Q 43.171875 40.875 41.15625 35.84375 
L 27.046875 0.6875 
Q 26.65625 -0.25 26.40625 -0.578125 
Q 26.171875 -0.921875 25.734375 -0.921875 
Q 25.25 -0.921875 24.90625 -0.359375 
Q 24.5625 0.203125 24.171875 1.03125 
L 9.234375 36.765625 
Q 7.421875 41.109375 5.375 42.671875 
Q 4.15625 43.5625 1.8125 43.84375 
L 1.8125 45.359375 
z
" id="Times-Roman-118"/>
      <path d="M 2.046875 1.375 
Q 6.59375 1.8125 8.203125 3.203125 
Q 9.8125 4.59375 9.8125 8.640625 
L 9.8125 56.34375 
Q 9.8125 59.578125 9.28125 60.796875 
Q 8.296875 62.84375 5.328125 62.84375 
Q 4.640625 62.84375 3.828125 62.6875 
Q 3.03125 62.546875 1.8125 62.25 
L 1.8125 63.875 
Q 8.40625 65.625 17.671875 68.5625 
Q 18.015625 68.5625 18.09375 68.265625 
Q 18.171875 67.96875 18.171875 67 
L 18.171875 8.453125 
Q 18.171875 4.203125 19.625 2.953125 
Q 21.09375 1.703125 25.6875 1.375 
L 25.6875 0 
L 2.046875 0 
z
" id="Times-Roman-108"/>
     </defs>
     <g transform="translate(-1.088125 82.278)rotate(-90)scale(0.1 -0.1)">
      <use xlink:href="#Times-Roman-37"/>
      <use x="83.300781" xlink:href="#Times-Roman-32"/>
      <use x="108.300781" xlink:href="#Times-Roman-116"/>
      <use x="136.083984" xlink:href="#Times-Roman-104"/>
      <use x="186.083984" xlink:href="#Times-Roman-97"/>
      <use x="230.46875" xlink:href="#Times-Roman-116"/>
      <use x="258.251953" xlink:href="#Times-Roman-32"/>
      <use x="283.251953" xlink:href="#Times-Roman-97"/>
      <use x="327.636719" xlink:href="#Times-Roman-114"/>
      <use x="360.9375" xlink:href="#Times-Roman-101"/>
      <use x="405.322266" xlink:href="#Times-Roman-32"/>
      <use x="430.322266" xlink:href="#Times-Roman-110"/>
      <use x="480.322266" xlink:href="#Times-Roman-111"/>
      <use x="530.322266" xlink:href="#Times-Roman-118"/>
      <use x="580.322266" xlink:href="#Times-Roman-101"/>
      <use x="624.707031" xlink:href="#Times-Roman-108"/>
     </g>
    </g>
   </g>
   <g id="patch_33">
    <path d="M 22.5 86.346 
L 22.5 12.96 
" style="fill:none;stroke:#000000;stroke-linecap:square;stroke-linejoin:miter;stroke-width:0.8;"/>
   </g>
   <g id="patch_34">
    <path d="M 162 86.346 
L 162 12.96 
" style="fill:none;stroke:#000000;stroke-linecap:square;stroke-linejoin:miter;stroke-width:0.8;"/>
   </g>
   <g id="patch_35">
    <path d="M 22.5 86.346 
L 162 86.346 
" style="fill:none;stroke:#000000;stroke-linecap:square;stroke-linejoin:miter;stroke-width:0.8;"/>
   </g>
   <g id="patch_36">
    <path d="M 22.5 12.96 
L 162 12.96 
" style="fill:none;stroke:#000000;stroke-linecap:square;stroke-linejoin:miter;stroke-width:0.8;"/>
   </g>
   <g id="text_12">
    <!-- CNN/Daily Mail -->
    <defs>
     <path d="M 37.015625 67.328125 
Q 42.4375 67.328125 48.140625 65.71875 
Q 53.859375 64.109375 54.546875 64.109375 
Q 55.953125 64.109375 57.21875 64.890625 
Q 58.5 65.671875 58.984375 67.328125 
L 61.078125 67.328125 
L 62.015625 44.875 
L 59.71875 44.875 
Q 57.71875 51.5625 54.5 55.671875 
Q 48.34375 63.375 37.9375 63.375 
Q 27.4375 63.375 20.765625 55.078125 
Q 14.109375 46.78125 14.109375 32.234375 
Q 14.109375 18.84375 21.109375 10.859375 
Q 28.125 2.875 38.875 2.875 
Q 46.625 2.875 53.171875 6.59375 
Q 56.9375 8.6875 61.421875 12.9375 
L 63.28125 11.078125 
Q 59.96875 6.890625 55.03125 3.71875 
Q 46.625 -1.65625 36.8125 -1.65625 
Q 20.703125 -1.65625 11.234375 8.640625 
Q 2.484375 18.171875 2.484375 32.421875 
Q 2.484375 47.015625 11.71875 56.9375 
Q 21.4375 67.328125 37.015625 67.328125 
z
M 36.671875 67.328125 
z
" id="Times-Roman-67"/>
     <path d="M 1.125 1.8125 
Q 7.328125 2.4375 9.078125 4.609375 
Q 10.84375 6.78125 10.84375 14.703125 
L 10.84375 58.796875 
L 9.46875 60.40625 
Q 7.28125 62.984375 5.734375 63.59375 
Q 4.203125 64.203125 1.125 64.3125 
L 1.125 66.15625 
L 18.265625 66.15625 
L 56.78125 18.015625 
L 56.78125 51.46875 
Q 56.78125 59.71875 54.34375 62.203125 
Q 52.734375 63.8125 47.21875 64.3125 
L 47.21875 66.15625 
L 70.703125 66.15625 
L 70.703125 64.3125 
Q 64.984375 63.71875 63.078125 61.515625 
Q 61.1875 59.328125 61.1875 51.46875 
L 61.1875 -1.171875 
L 59.46875 -1.171875 
L 15.234375 53.65625 
L 15.234375 14.703125 
Q 15.234375 6.5 17.625 4 
Q 19.1875 2.390625 24.609375 1.8125 
L 24.609375 0 
L 1.125 0 
z
M 36.1875 66.15625 
z
" id="Times-Roman-78"/>
     <path d="M 22.40625 67.578125 
L 27.296875 67.578125 
L 5.171875 -1.65625 
L 0.203125 -1.65625 
z
" id="Times-Roman-47"/>
     <path d="M 20.5625 7.71875 
Q 20.5625 5.28125 21.75 4.5 
Q 22.953125 3.71875 26.703125 3.71875 
Q 38.421875 3.71875 46 8.34375 
Q 57.625 15.484375 57.625 32.71875 
Q 57.625 48.09375 48.046875 55.859375 
Q 39.84375 62.5 26.3125 62.5 
Q 22.953125 62.5 21.75 61.765625 
Q 20.5625 61.03125 20.5625 58.546875 
L 20.5625 7.71875 
z
M 1.609375 1.8125 
Q 7.078125 2.390625 8.734375 3.78125 
Q 10.40625 5.171875 10.40625 10.84375 
L 10.40625 55.328125 
Q 10.40625 60.796875 8.78125 62.359375 
Q 7.171875 63.921875 1.609375 64.3125 
L 1.609375 66.15625 
L 28.5625 66.15625 
Q 42.1875 66.15625 51.609375 61.671875 
Q 68.609375 53.609375 68.609375 32.859375 
Q 68.609375 25.390625 65.546875 18.65625 
Q 62.5 11.921875 56.34375 7.28125 
Q 52.4375 4.34375 48.25 2.828125 
Q 40.578125 0 29.390625 0 
L 1.609375 0 
z
" id="Times-Roman-68"/>
     <path d="M 8.203125 63.03125 
Q 8.203125 65.140625 9.671875 66.65625 
Q 11.140625 68.171875 13.28125 68.171875 
Q 15.375 68.171875 16.859375 66.671875 
Q 18.359375 65.1875 18.359375 63.03125 
Q 18.359375 60.9375 16.859375 59.4375 
Q 15.375 57.953125 13.28125 57.953125 
Q 11.140625 57.953125 9.671875 59.4375 
Q 8.203125 60.9375 8.203125 63.03125 
z
M 1.953125 1.375 
Q 7.171875 1.859375 8.53125 3.140625 
Q 9.90625 4.4375 9.90625 10.15625 
L 9.90625 33.453125 
Q 9.90625 36.625 9.46875 37.84375 
Q 8.734375 39.84375 6.390625 39.84375 
Q 5.859375 39.84375 5.34375 39.75 
Q 4.828125 39.65625 2.390625 38.96875 
L 2.390625 40.484375 
L 4.5 41.15625 
Q 13.03125 43.953125 16.40625 45.359375 
Q 17.78125 45.953125 18.171875 45.953125 
Q 18.265625 45.609375 18.265625 45.21875 
L 18.265625 10.15625 
Q 18.265625 4.59375 19.609375 3.171875 
Q 20.953125 1.765625 25.6875 1.375 
L 25.6875 0 
L 1.953125 0 
z
" id="Times-Roman-105"/>
     <path d="M 1.375 44.875 
L 21.96875 44.875 
L 21.96875 43.359375 
Q 19.53125 43.3125 18.359375 42.921875 
Q 16.109375 42.28125 16.109375 40.4375 
Q 16.109375 39.75 16.359375 39.03125 
Q 16.609375 38.328125 17.234375 36.921875 
L 28.65625 11.578125 
L 37.84375 37.109375 
Q 37.984375 37.5 38.296875 38.859375 
Q 38.625 40.234375 38.625 40.71875 
Q 38.625 42 37.734375 42.578125 
Q 36.859375 43.171875 35.5 43.265625 
L 33.984375 43.359375 
L 33.984375 44.875 
L 47.40625 44.875 
L 47.40625 43.359375 
Q 45.40625 43.109375 44.40625 41.984375 
Q 43.40625 40.875 42.671875 38.875 
L 27.296875 -1.859375 
Q 23.296875 -12.40625 19.625 -17.140625 
Q 15.96875 -21.875 10.359375 -21.875 
Q 7.625 -21.875 5.21875 -20.5 
Q 2.828125 -19.140625 2.828125 -16.15625 
Q 2.828125 -14.203125 4.265625 -12.953125 
Q 5.71875 -11.71875 7.90625 -11.71875 
Q 9.1875 -11.71875 11.6875 -12.640625 
Q 14.203125 -13.578125 15.28125 -13.578125 
Q 18.015625 -13.578125 21.046875 -7.21875 
Q 24.078125 -0.875 24.078125 1.265625 
Q 24.078125 1.703125 23.921875 2.34375 
Q 23.78125 2.984375 23.578125 3.46875 
L 7.953125 37.25 
Q 6.296875 40.875 5.046875 42.015625 
Q 3.8125 43.171875 1.375 43.5 
z
M 24.609375 45.796875 
z
" id="Times-Roman-121"/>
     <path d="M 1.125 1.8125 
Q 7.328125 2.4375 9.078125 4.609375 
Q 10.84375 6.78125 10.84375 14.703125 
L 10.84375 55.328125 
Q 10.84375 60.75 9.125 62.375 
Q 7.421875 64.015625 1.375 64.3125 
L 1.375 66.15625 
L 21.140625 66.15625 
L 44.28125 15.71875 
L 66.40625 66.15625 
L 86.328125 66.15625 
L 86.328125 64.3125 
Q 80.765625 63.921875 79.15625 62.28125 
Q 77.546875 60.640625 77.546875 55.328125 
L 77.546875 10.84375 
Q 77.546875 5.375 79.15625 3.828125 
Q 80.765625 2.296875 86.328125 1.8125 
L 86.328125 0 
L 58.296875 0 
L 58.296875 1.8125 
Q 64.359375 2.296875 65.84375 3.984375 
Q 67.328125 5.671875 67.328125 12.015625 
L 67.328125 56.9375 
L 41.75 0 
L 40.375 0 
L 15.234375 54.59375 
L 15.234375 14.703125 
Q 15.234375 6.5 17.625 4 
Q 19.1875 2.390625 24.609375 1.8125 
L 24.609375 0 
L 1.125 0 
z
" id="Times-Roman-77"/>
    </defs>
    <g transform="translate(58.501562 6.96)scale(0.1 -0.1)">
     <use xlink:href="#Times-Roman-67"/>
     <use x="66.699219" xlink:href="#Times-Roman-78"/>
     <use x="138.916016" xlink:href="#Times-Roman-78"/>
     <use x="211.132812" xlink:href="#Times-Roman-47"/>
     <use x="238.916016" xlink:href="#Times-Roman-68"/>
     <use x="311.132812" xlink:href="#Times-Roman-97"/>
     <use x="355.517578" xlink:href="#Times-Roman-105"/>
     <use x="383.300781" xlink:href="#Times-Roman-108"/>
     <use x="411.083984" xlink:href="#Times-Roman-121"/>
     <use x="461.083984" xlink:href="#Times-Roman-32"/>
     <use x="486.083984" xlink:href="#Times-Roman-77"/>
     <use x="575" xlink:href="#Times-Roman-97"/>
     <use x="619.384766" xlink:href="#Times-Roman-105"/>
     <use x="647.167969" xlink:href="#Times-Roman-108"/>
    </g>
   </g>
  </g>
 </g>
 <defs>
  <clipPath id="p8b6ddff12d">
   <rect height="73.386" width="139.5" x="22.5" y="12.96"/>
  </clipPath>
 </defs>
</svg>
