<?xml version="1.0" encoding="utf-8" standalone="no"?>
<!DOCTYPE svg PUBLIC "-//W3C//DTD SVG 1.1//EN"
  "http://www.w3.org/Graphics/SVG/1.1/DTD/svg11.dtd">
<!-- Created with matplotlib (https://matplotlib.org/) -->
<svg height="108pt" version="1.1" viewBox="0 0 144 108" width="144pt" xmlns="http://www.w3.org/2000/svg" xmlns:xlink="http://www.w3.org/1999/xlink">
 <defs>
  <style type="text/css">
*{stroke-linecap:butt;stroke-linejoin:round;white-space:pre;}
  </style>
 </defs>
 <g id="figure_1">
  <g id="patch_1">
   <path d="M 0 108 
L 144 108 
L 144 0 
L 0 0 
z
" style="fill:#ffffff;"/>
  </g>
  <g id="axes_1">
   <g id="patch_2">
    <path d="M 18 94.5 
L 129.6 94.5 
L 129.6 12.96 
L 18 12.96 
z
" style="fill:#ffffff;"/>
   </g>
   <g id="legend_1">
    <g id="patch_3">
     <path d="M 11.698 69.395712 
L 111.636169 69.395712 
Q 113.024169 69.395712 113.024169 68.007712 
L 113.024169 9.664 
Q 113.024169 8.276 111.636169 8.276 
L 11.698 8.276 
Q 10.31 8.276 10.31 9.664 
L 10.31 68.007712 
Q 10.31 69.395712 11.698 69.395712 
z
" style="fill:#ffffff;opacity:0.8;stroke:#cccccc;stroke-linejoin:miter;"/>
    </g>
    <g id="patch_4">
     <path d="M 13.086 15.91 
L 26.966 15.91 
L 26.966 11.052 
L 13.086 11.052 
z
" style="fill:#0072b2;"/>
    </g>
    <g id="text_1">
     <!-- lead-3 -->
     <defs>
      <path d="M 2.046875 1.375 
Q 6.59375 1.8125 8.203125 3.203125 
Q 9.8125 4.59375 9.8125 8.640625 
L 9.8125 56.34375 
Q 9.8125 59.578125 9.28125 60.796875 
Q 8.296875 62.84375 5.328125 62.84375 
Q 4.640625 62.84375 3.828125 62.6875 
Q 3.03125 62.546875 1.8125 62.25 
L 1.8125 63.875 
Q 8.40625 65.625 17.671875 68.5625 
Q 18.015625 68.5625 18.09375 68.265625 
Q 18.171875 67.96875 18.171875 67 
L 18.171875 8.453125 
Q 18.171875 4.203125 19.625 2.953125 
Q 21.09375 1.703125 25.6875 1.375 
L 25.6875 0 
L 2.046875 0 
z
" id="Times-Roman-108"/>
      <path d="M 22.90625 45.796875 
Q 29.78125 45.796875 34.953125 41.03125 
Q 40.140625 36.28125 40.140625 27.546875 
L 9.125 27.546875 
Q 9.625 16.21875 14.25 11.03125 
Q 18.890625 5.859375 25.25 5.859375 
Q 30.375 5.859375 33.890625 8.546875 
Q 37.40625 11.234375 40.375 16.15625 
L 42.09375 15.578125 
Q 40.09375 9.375 34.59375 4.09375 
Q 29.109375 -1.171875 21.140625 -1.171875 
Q 11.96875 -1.171875 6.953125 5.765625 
Q 1.953125 12.703125 1.953125 21.734375 
Q 1.953125 31.546875 7.765625 38.671875 
Q 13.578125 45.796875 22.90625 45.796875 
z
M 20.0625 42.234375 
Q 14.5 42.234375 11.578125 37.3125 
Q 10.015625 34.671875 9.328125 30.671875 
L 29.9375 30.671875 
Q 29.390625 35.546875 28.078125 37.9375 
Q 25.6875 42.234375 20.0625 42.234375 
z
M 22.265625 45.796875 
z
" id="Times-Roman-101"/>
      <path d="M 28.65625 27.046875 
Q 23.046875 25.203125 19.390625 22.953125 
Q 12.359375 18.609375 12.359375 13.09375 
Q 12.359375 8.640625 15.28125 6.546875 
Q 17.1875 5.171875 19.53125 5.171875 
Q 22.75 5.171875 25.703125 6.984375 
Q 28.65625 8.796875 28.65625 11.578125 
z
M 3.65625 9.71875 
Q 3.65625 16.796875 10.75 21.53125 
Q 15.234375 24.46875 28.65625 29.5 
L 28.65625 33.640625 
Q 28.65625 38.625 27.6875 40.578125 
Q 26.03125 43.84375 20.796875 43.84375 
Q 18.3125 43.84375 16.0625 42.578125 
Q 13.8125 41.265625 13.8125 38.96875 
Q 13.8125 38.375 14.0625 36.984375 
Q 14.3125 35.59375 14.3125 35.203125 
Q 14.3125 32.46875 12.5 31.390625 
Q 11.46875 30.765625 10.0625 30.765625 
Q 7.859375 30.765625 6.6875 32.203125 
Q 5.515625 33.640625 5.515625 35.40625 
Q 5.515625 38.8125 9.734375 42.546875 
Q 13.96875 46.296875 22.125 46.296875 
Q 31.59375 46.296875 34.96875 40.140625 
Q 36.765625 36.765625 36.765625 30.328125 
L 36.765625 10.75 
Q 36.765625 7.90625 37.15625 6.84375 
Q 37.796875 4.9375 39.796875 4.9375 
Q 40.921875 4.9375 41.65625 5.265625 
Q 42.390625 5.609375 44.1875 6.9375 
L 44.1875 4.390625 
Q 42.625 2.484375 40.828125 1.265625 
Q 38.09375 -0.59375 35.25 -0.59375 
Q 31.9375 -0.59375 30.4375 1.5625 
Q 28.953125 3.71875 28.8125 6.6875 
Q 25.09375 3.46875 22.46875 1.90625 
Q 18.015625 -0.734375 14.015625 -0.734375 
Q 9.8125 -0.734375 6.734375 2.21875 
Q 3.65625 5.171875 3.65625 9.71875 
z
M 22.265625 46.296875 
z
" id="Times-Roman-97"/>
      <path d="M 23.6875 46.140625 
Q 27.25 46.140625 30.21875 44.578125 
Q 32.171875 43.5625 33.984375 41.75 
L 33.984375 57.28125 
Q 33.984375 60.25 33.328125 61.375 
Q 32.671875 62.5 30.171875 62.5 
Q 29.59375 62.5 29.15625 62.453125 
Q 28.71875 62.40625 27.203125 62.25 
L 27.203125 63.875 
L 31.203125 64.890625 
Q 33.40625 65.484375 35.59375 66.109375 
Q 37.796875 66.75 39.453125 67.328125 
Q 40.234375 67.578125 42.046875 68.265625 
L 42.328125 68.171875 
L 42.234375 63.03125 
Q 42.1875 60.25 42.140625 57.296875 
Q 42.09375 54.34375 42.09375 51.46875 
L 42 11.578125 
Q 42 8.40625 42.78125 7.125 
Q 43.5625 5.859375 46.921875 5.859375 
Q 47.46875 5.859375 48 5.875 
Q 48.53125 5.90625 49.078125 6 
L 49.078125 4.390625 
Q 48.78125 4.296875 42 1.953125 
L 34.328125 -0.921875 
L 33.984375 -0.484375 
L 33.984375 5.515625 
Q 31.25 2.546875 29.25 1.265625 
Q 25.6875 -0.921875 21 -0.921875 
Q 12.703125 -0.921875 7.546875 5.5 
Q 2.390625 11.921875 2.390625 20.359375 
Q 2.390625 30.953125 8.5625 38.546875 
Q 14.75 46.140625 23.6875 46.140625 
z
M 25.484375 4.34375 
Q 29.296875 4.34375 31.640625 6.59375 
Q 33.984375 8.84375 33.984375 10.84375 
L 33.984375 31.78125 
Q 33.984375 38.140625 30.59375 40.75 
Q 27.203125 43.359375 23.96875 43.359375 
Q 17.828125 43.359375 14.40625 37.90625 
Q 10.984375 32.46875 10.984375 24.515625 
Q 10.984375 16.65625 14.625 10.5 
Q 18.265625 4.34375 25.484375 4.34375 
z
" id="Times-Roman-100"/>
      <path d="M 3.90625 25.6875 
L 28.46875 25.6875 
L 28.46875 19.4375 
L 3.90625 19.4375 
z
" id="Times-Roman-45"/>
      <path d="M 7.765625 8.5 
Q 10.453125 8.5 14.859375 5.71875 
Q 19.28125 2.9375 22.359375 2.9375 
Q 29.203125 2.9375 32.515625 7.546875 
Q 35.84375 12.15625 35.84375 17.578125 
Q 35.84375 22.796875 33.15625 26.765625 
Q 28.609375 33.453125 17.828125 33.453125 
Q 17.1875 33.453125 16.59375 33.421875 
Q 16.015625 33.40625 15.234375 33.296875 
L 15.140625 34.578125 
Q 22.953125 37.40625 27.4375 41.0625 
Q 31.9375 44.734375 31.9375 50.734375 
Q 31.9375 56.0625 28.390625 58.84375 
Q 24.859375 61.625 20.3125 61.625 
Q 14.9375 61.625 10.84375 57.671875 
Q 8.59375 55.515625 6 51.03125 
L 4.5 51.375 
Q 6.453125 58.796875 11.765625 63.234375 
Q 17.09375 67.671875 24.078125 67.671875 
Q 31.546875 67.671875 35.625 63.5625 
Q 39.703125 59.46875 39.703125 54.109375 
Q 39.703125 49.359375 36.328125 45.40625 
Q 34.421875 43.171875 30.421875 40.375 
Q 35.109375 38.375 37.9375 35.6875 
Q 43.265625 30.5625 43.265625 22.703125 
Q 43.265625 13.421875 35.953125 6.34375 
Q 28.65625 -0.734375 15.1875 -0.734375 
Q 9.1875 -0.734375 6.765625 1.046875 
Q 4.34375 2.828125 4.34375 4.890625 
Q 4.34375 6.15625 5.140625 7.328125 
Q 5.953125 8.5 7.765625 8.5 
z
" id="Times-Roman-51"/>
     </defs>
     <g transform="translate(32.518 15.91)scale(0.0694 -0.0694)">
      <use xlink:href="#Times-Roman-108"/>
      <use x="27.783203" xlink:href="#Times-Roman-101"/>
      <use x="72.167969" xlink:href="#Times-Roman-97"/>
      <use x="116.552734" xlink:href="#Times-Roman-100"/>
      <use x="166.552734" xlink:href="#Times-Roman-45"/>
      <use x="199.853516" xlink:href="#Times-Roman-51"/>
     </g>
    </g>
    <g id="patch_5">
     <path d="M 13.086 25.749619 
L 26.966 25.749619 
L 26.966 20.891619 
L 13.086 20.891619 
z
" style="fill:#009e73;"/>
    </g>
    <g id="text_2">
     <!-- 60k fine-tuned -->
     <defs>
      <path d="M 46.78125 22.21875 
Q 46.78125 13.28125 41.03125 6.09375 
Q 35.296875 -1.078125 26.125 -1.078125 
Q 17.53125 -1.078125 10.46875 6.984375 
Q 3.421875 15.046875 3.421875 28.421875 
Q 3.421875 45.65625 17.09375 58.015625 
Q 29.296875 68.359375 44.53125 68.359375 
L 44.78125 66.75 
Q 38.671875 65.625 34.25 63.6875 
Q 29.828125 61.765625 26.375 58.296875 
Q 22.796875 54.78125 19.671875 49.359375 
Q 16.546875 43.953125 15.375 38.625 
Q 18.40625 40.484375 20.609375 41.359375 
Q 24.515625 42.921875 28.46875 42.921875 
Q 36.234375 42.921875 41.5 37.546875 
Q 46.78125 32.171875 46.78125 22.21875 
z
M 37.84375 18.453125 
Q 37.84375 24.953125 35.796875 29.984375 
Q 32.375 38.375 24.171875 38.375 
Q 16.609375 38.375 14.109375 33.890625 
Q 12.640625 31.25 12.640625 25.09375 
Q 12.640625 17.140625 16.03125 9.515625 
Q 19.4375 1.90625 26.765625 1.90625 
Q 32.5625 1.90625 35.203125 6.859375 
Q 37.84375 11.8125 37.84375 18.453125 
z
" id="Times-Roman-54"/>
      <path d="M 23.921875 1.8125 
Q 31.109375 1.8125 33.78125 9.671875 
Q 36.46875 17.53125 36.46875 32.421875 
Q 36.46875 44.28125 34.859375 51.375 
Q 31.84375 64.546875 23.53125 64.546875 
Q 15.234375 64.546875 12.15625 50.984375 
Q 10.546875 43.75 10.546875 31.9375 
Q 10.546875 20.84375 12.203125 14.203125 
Q 15.328125 1.8125 23.921875 1.8125 
z
M 23.78125 67.1875 
Q 35.015625 67.1875 41.21875 55.421875 
Q 46.140625 45.90625 46.140625 33.546875 
Q 46.140625 23.828125 43.109375 15.234375 
Q 37.40625 -0.921875 23.34375 -0.921875 
Q 13.71875 -0.921875 7.515625 7.8125 
Q 0.875 17.140625 0.875 33.15625 
Q 0.875 45.75 5.328125 54.828125 
Q 11.328125 67.1875 23.78125 67.1875 
z
" id="Times-Roman-48"/>
      <path d="M 0.203125 1.375 
Q 4.890625 1.703125 6.375 2.921875 
Q 7.859375 4.15625 7.859375 8.203125 
L 7.859375 57.125 
Q 7.859375 60.59375 6.6875 61.515625 
Q 5.515625 62.453125 3.328125 62.453125 
Q 2.390625 62.453125 1.703125 62.40625 
Q 1.03125 62.359375 0.203125 62.25 
L 0.203125 63.625 
L 4.59375 64.796875 
Q 9.625 66.109375 13.140625 67.28125 
Q 15.28125 68.015625 15.625 68.015625 
Q 15.921875 68.015625 15.984375 67.890625 
Q 16.0625 67.78125 16.0625 67.328125 
L 16.0625 26.265625 
L 29.59375 38.1875 
Q 31.0625 39.5 31.5625 40.28125 
Q 32.078125 41.0625 32.078125 41.65625 
Q 32.078125 42.78125 30.984375 43.0625 
Q 29.890625 43.359375 27.046875 43.5 
L 27.046875 44.875 
L 47.40625 44.875 
L 47.40625 43.5 
Q 41.9375 43.171875 38.609375 41.328125 
Q 35.296875 39.5 25.875 30.859375 
L 23 28.21875 
L 32.03125 16.5 
Q 38.96875 7.515625 42.484375 4.5625 
Q 46 1.609375 49.953125 1.265625 
L 49.953125 0 
L 28.21875 0 
L 28.21875 1.375 
L 29.9375 1.46875 
Q 30.765625 1.515625 31.4375 1.796875 
Q 32.125 2.09375 32.125 2.78125 
Q 32.125 3.328125 31.875 3.78125 
Q 31.640625 4.25 31.203125 4.828125 
L 16.0625 24.75 
L 16.0625 6.6875 
Q 16.0625 3.328125 18.5625 2.203125 
Q 20.015625 1.515625 23.578125 1.46875 
L 23.578125 0 
L 0.203125 0 
z
" id="Times-Roman-107"/>
      <path id="Times-Roman-32"/>
      <path d="M 1.953125 1.375 
Q 7.125 1.609375 8.765625 3.296875 
Q 10.40625 4.984375 10.40625 10.40625 
L 10.40625 41.75 
L 2.046875 41.75 
L 2.046875 45.015625 
L 10.40625 45.015625 
Q 10.40625 52.734375 12.5 58.0625 
Q 16.5 68.265625 27.203125 68.265625 
Q 31.5 68.265625 34.890625 66.546875 
Q 38.28125 64.84375 38.28125 61.96875 
Q 38.28125 60.359375 37.109375 59.078125 
Q 35.9375 57.8125 34.28125 57.8125 
Q 32.859375 57.8125 31.828125 58.65625 
Q 30.8125 59.515625 29.390625 61.671875 
L 28.5625 62.9375 
Q 27.875 63.96875 26.953125 64.671875 
Q 26.03125 65.375 24.359375 65.375 
Q 20.65625 65.375 19.34375 61.71875 
Q 18.609375 59.765625 18.609375 56.59375 
L 18.609375 45.015625 
L 30.859375 45.015625 
L 30.859375 41.75 
L 18.703125 41.75 
L 18.703125 10.40625 
Q 18.703125 4.890625 20.1875 3.34375 
Q 21.6875 1.8125 27.984375 1.375 
L 27.984375 0 
L 1.953125 0 
z
" id="Times-Roman-102"/>
      <path d="M 8.203125 63.03125 
Q 8.203125 65.140625 9.671875 66.65625 
Q 11.140625 68.171875 13.28125 68.171875 
Q 15.375 68.171875 16.859375 66.671875 
Q 18.359375 65.1875 18.359375 63.03125 
Q 18.359375 60.9375 16.859375 59.4375 
Q 15.375 57.953125 13.28125 57.953125 
Q 11.140625 57.953125 9.671875 59.4375 
Q 8.203125 60.9375 8.203125 63.03125 
z
M 1.953125 1.375 
Q 7.171875 1.859375 8.53125 3.140625 
Q 9.90625 4.4375 9.90625 10.15625 
L 9.90625 33.453125 
Q 9.90625 36.625 9.46875 37.84375 
Q 8.734375 39.84375 6.390625 39.84375 
Q 5.859375 39.84375 5.34375 39.75 
Q 4.828125 39.65625 2.390625 38.96875 
L 2.390625 40.484375 
L 4.5 41.15625 
Q 13.03125 43.953125 16.40625 45.359375 
Q 17.78125 45.953125 18.171875 45.953125 
Q 18.265625 45.609375 18.265625 45.21875 
L 18.265625 10.15625 
Q 18.265625 4.59375 19.609375 3.171875 
Q 20.953125 1.765625 25.6875 1.375 
L 25.6875 0 
L 1.953125 0 
z
" id="Times-Roman-105"/>
      <path d="M 1.8125 1.375 
Q 5.28125 1.8125 6.671875 3.09375 
Q 8.0625 4.390625 8.0625 8.890625 
L 8.0625 33.640625 
Q 8.0625 36.765625 7.46875 38.03125 
Q 6.546875 39.890625 3.65625 39.890625 
Q 3.21875 39.890625 2.75 39.84375 
Q 2.296875 39.796875 1.609375 39.703125 
L 1.609375 41.40625 
Q 3.609375 42 11.078125 44.4375 
L 15.671875 45.953125 
Q 16.015625 45.953125 16.078125 45.703125 
Q 16.15625 45.453125 16.15625 45.015625 
L 16.15625 37.84375 
Q 20.65625 42.046875 23.1875 43.609375 
Q 27 46 31.109375 46 
Q 34.421875 46 37.15625 44.09375 
Q 42.4375 40.375 42.4375 30.859375 
L 42.4375 8.0625 
Q 42.4375 4.546875 43.84375 2.984375 
Q 45.265625 1.421875 48.578125 1.375 
L 48.578125 0 
L 27.734375 0 
L 27.734375 1.375 
Q 31.296875 1.859375 32.703125 3.34375 
Q 34.125 4.828125 34.125 9.8125 
L 34.125 30.671875 
Q 34.125 34.859375 32.5625 37.609375 
Q 31 40.375 26.8125 40.375 
Q 23.921875 40.375 20.953125 38.421875 
Q 19.28125 37.3125 16.65625 34.71875 
L 16.65625 7.375 
Q 16.65625 3.859375 18.21875 2.65625 
Q 19.78125 1.46875 23.140625 1.375 
L 23.140625 0 
L 1.8125 0 
z
M 25.046875 46 
z
" id="Times-Roman-110"/>
      <path d="M 25.4375 45.015625 
L 25.4375 41.5 
L 15.484375 41.5 
L 15.375 13.375 
Q 15.375 9.671875 16.015625 7.765625 
Q 17.1875 4.390625 20.609375 4.390625 
Q 22.359375 4.390625 23.65625 5.21875 
Q 24.953125 6.0625 26.609375 7.859375 
L 27.875 6.78125 
L 26.8125 5.328125 
Q 24.265625 1.90625 21.4375 0.484375 
Q 18.609375 -0.921875 15.96875 -0.921875 
Q 10.203125 -0.921875 8.15625 4.203125 
Q 7.03125 6.984375 7.03125 11.921875 
L 7.03125 41.5 
L 1.703125 41.5 
Q 1.46875 41.65625 1.34375 41.796875 
Q 1.21875 41.9375 1.21875 42.1875 
Q 1.21875 42.671875 1.4375 42.9375 
Q 1.65625 43.21875 2.828125 44.1875 
Q 6.203125 46.96875 7.6875 48.703125 
Q 9.1875 50.4375 14.703125 57.859375 
Q 15.328125 57.859375 15.453125 57.765625 
Q 15.578125 57.671875 15.578125 57.03125 
L 15.578125 45.015625 
z
" id="Times-Roman-116"/>
      <path d="M 15.484375 45.21875 
L 15.484375 13.96875 
Q 15.484375 10.640625 16.40625 8.640625 
Q 18.21875 4.9375 23.046875 4.9375 
Q 26.375 4.9375 29.546875 7.125 
Q 31.34375 8.34375 33.203125 10.5 
L 33.203125 37.25 
Q 33.203125 41.015625 31.734375 42.1875 
Q 30.28125 43.359375 25.875 43.609375 
L 25.875 45.21875 
L 41.65625 45.21875 
L 41.65625 10.84375 
Q 41.65625 7.515625 42.84375 6.265625 
Q 44.046875 5.03125 47.90625 5.171875 
L 47.90625 3.8125 
Q 45.21875 3.078125 43.9375 2.703125 
Q 42.671875 2.34375 39.703125 1.375 
Q 38.421875 0.921875 34.125 -0.734375 
Q 33.890625 -0.734375 33.84375 -0.515625 
Q 33.796875 -0.296875 33.796875 0 
L 33.796875 7.859375 
Q 30.46875 3.90625 27.734375 2 
Q 23.578125 -0.921875 18.953125 -0.921875 
Q 14.703125 -0.921875 10.9375 2.09375 
Q 7.125 5.078125 7.125 12.109375 
L 7.125 37.453125 
Q 7.125 41.359375 5.46875 42.671875 
Q 4.390625 43.5 0.875 43.84375 
L 0.875 45.21875 
z
M 25.046875 45.796875 
z
" id="Times-Roman-117"/>
     </defs>
     <g transform="translate(32.518 25.749619)scale(0.0694 -0.0694)">
      <use xlink:href="#Times-Roman-54"/>
      <use x="50" xlink:href="#Times-Roman-48"/>
      <use x="100" xlink:href="#Times-Roman-107"/>
      <use x="150" xlink:href="#Times-Roman-32"/>
      <use x="175" xlink:href="#Times-Roman-102"/>
      <use x="208.300781" xlink:href="#Times-Roman-105"/>
      <use x="236.083984" xlink:href="#Times-Roman-110"/>
      <use x="286.083984" xlink:href="#Times-Roman-101"/>
      <use x="330.46875" xlink:href="#Times-Roman-45"/>
      <use x="363.769531" xlink:href="#Times-Roman-116"/>
      <use x="391.552734" xlink:href="#Times-Roman-117"/>
      <use x="441.552734" xlink:href="#Times-Roman-110"/>
      <use x="491.552734" xlink:href="#Times-Roman-101"/>
      <use x="535.9375" xlink:href="#Times-Roman-100"/>
     </g>
    </g>
    <g id="patch_6">
     <path d="M 13.086 35.589237 
L 26.966 35.589237 
L 26.966 30.731237 
L 13.086 30.731237 
z
" style="fill:#d55e00;"/>
    </g>
    <g id="text_3">
     <!-- supervised + 60k fine-tuned -->
     <defs>
      <path d="M 5.171875 15.375 
L 6.78125 15.375 
Q 7.90625 9.8125 9.8125 6.84375 
Q 13.234375 1.375 19.828125 1.375 
Q 23.484375 1.375 25.609375 3.390625 
Q 27.734375 5.421875 27.734375 8.640625 
Q 27.734375 10.6875 26.515625 12.59375 
Q 25.296875 14.5 22.21875 16.3125 
L 16.75 19.4375 
Q 10.75 22.65625 7.90625 25.921875 
Q 5.078125 29.203125 5.078125 33.640625 
Q 5.078125 39.109375 8.984375 42.625 
Q 12.890625 46.140625 18.796875 46.140625 
Q 21.390625 46.140625 24.484375 45.15625 
Q 27.59375 44.1875 27.984375 44.1875 
Q 28.859375 44.1875 29.25 44.421875 
Q 29.640625 44.671875 29.9375 45.21875 
L 31.109375 45.21875 
L 31.453125 31.59375 
L 29.9375 31.59375 
Q 28.953125 36.328125 27.296875 38.96875 
Q 24.265625 43.84375 18.5625 43.84375 
Q 15.140625 43.84375 13.1875 41.75 
Q 11.234375 39.65625 11.234375 36.8125 
Q 11.234375 32.328125 17.96875 28.8125 
L 24.421875 25.34375 
Q 34.8125 19.671875 34.8125 12.15625 
Q 34.8125 6.390625 30.484375 2.734375 
Q 26.171875 -0.921875 19.1875 -0.921875 
Q 16.265625 -0.921875 12.546875 0.046875 
Q 8.84375 1.03125 8.15625 1.03125 
Q 7.5625 1.03125 7.125 0.609375 
Q 6.6875 0.203125 6.453125 -0.390625 
L 5.171875 -0.390625 
z
M 19.484375 46.140625 
z
" id="Times-Roman-115"/>
      <path d="M 15.96875 8.984375 
Q 17.234375 5.671875 19.75 4.03125 
Q 22.265625 2.390625 25.6875 2.390625 
Q 30.953125 2.390625 34.6875 7.640625 
Q 38.421875 12.890625 38.421875 22.265625 
Q 38.421875 31.25 34.546875 35.6875 
Q 30.671875 40.140625 25.53125 40.140625 
Q 21.921875 40.140625 18.9375 37.90625 
Q 15.96875 35.6875 15.96875 33.546875 
L 15.96875 8.984375 
z
M 0.4375 -20.171875 
Q 5.03125 -19.875 6.265625 -18.203125 
Q 7.515625 -16.546875 7.515625 -12.984375 
L 7.515625 33.890625 
Q 7.515625 37.59375 6.609375 38.640625 
Q 5.71875 39.703125 3.21875 39.703125 
Q 2.6875 39.703125 2.21875 39.640625 
Q 1.765625 39.59375 0.875 39.453125 
L 0.875 41.0625 
L 5.515625 42.578125 
Q 5.765625 42.625 15.328125 45.953125 
Q 15.578125 45.953125 15.703125 45.734375 
Q 15.828125 45.515625 15.828125 45.21875 
L 15.828125 38.625 
Q 19.046875 41.84375 21.484375 43.40625 
Q 25.875 46.140625 30.515625 46.140625 
Q 37.25 46.140625 42.109375 40.40625 
Q 46.96875 34.671875 46.96875 24.703125 
Q 46.96875 14.9375 41.125 6.96875 
Q 35.296875 -0.984375 26.46875 -0.984375 
Q 23.734375 -0.984375 21.734375 -0.296875 
Q 18.609375 0.734375 15.96875 3.46875 
L 15.96875 -12.5 
Q 15.96875 -17.4375 17.578125 -18.546875 
Q 19.1875 -19.671875 24.609375 -20.0625 
L 24.609375 -21.78125 
L 0.4375 -21.78125 
z
" id="Times-Roman-112"/>
      <path d="M 0.4375 1.609375 
Q 4.9375 2 6.390625 3.1875 
Q 7.859375 4.390625 7.859375 8.296875 
L 7.859375 30.328125 
Q 7.859375 35.15625 6.953125 37.234375 
Q 6.0625 39.3125 3.65625 39.3125 
Q 3.171875 39.3125 2.359375 39.1875 
Q 1.5625 39.0625 0.6875 38.875 
L 0.6875 40.484375 
Q 3.46875 41.453125 6.390625 42.46875 
Q 9.328125 43.5 10.453125 43.953125 
Q 12.890625 44.875 15.484375 46.046875 
Q 15.828125 46.046875 15.890625 45.796875 
Q 15.96875 45.5625 15.96875 44.78125 
L 15.96875 36.765625 
Q 19.09375 41.109375 22 43.546875 
Q 24.90625 46 28.03125 46 
Q 30.515625 46 32.078125 44.5 
Q 33.640625 43.015625 33.640625 40.765625 
Q 33.640625 38.765625 32.4375 37.390625 
Q 31.25 36.03125 29.4375 36.03125 
Q 27.59375 36.03125 25.703125 37.734375 
Q 23.828125 39.453125 22.75 39.453125 
Q 21.046875 39.453125 18.546875 36.6875 
Q 16.0625 33.9375 16.0625 31 
L 16.0625 8.984375 
Q 16.0625 4.78125 18.015625 3.140625 
Q 19.96875 1.515625 24.515625 1.609375 
L 24.515625 0 
L 0.4375 0 
z
" id="Times-Roman-114"/>
      <path d="M 21.484375 45.359375 
L 21.484375 43.84375 
Q 18.953125 43.5625 17.890625 43.0625 
Q 16.84375 42.578125 16.84375 40.921875 
Q 16.84375 40.140625 17.0625 39.421875 
Q 17.28125 38.71875 17.828125 37.359375 
L 27.984375 12.109375 
L 36.765625 34.46875 
Q 37.40625 36.078125 37.96875 37.828125 
Q 38.53125 39.59375 38.53125 40.53125 
Q 38.53125 42.4375 36.71875 43.265625 
Q 35.640625 43.703125 33.796875 43.84375 
L 33.796875 45.359375 
L 47.65625 45.359375 
L 47.65625 43.84375 
Q 45.265625 43.65625 44.21875 42.265625 
Q 43.171875 40.875 41.15625 35.84375 
L 27.046875 0.6875 
Q 26.65625 -0.25 26.40625 -0.578125 
Q 26.171875 -0.921875 25.734375 -0.921875 
Q 25.25 -0.921875 24.90625 -0.359375 
Q 24.5625 0.203125 24.171875 1.03125 
L 9.234375 36.765625 
Q 7.421875 41.109375 5.375 42.671875 
Q 4.15625 43.5625 1.8125 43.84375 
L 1.8125 45.359375 
z
" id="Times-Roman-118"/>
      <path d="M 24.859375 50.53125 
L 31.6875 50.53125 
L 31.6875 28.65625 
L 53.46875 28.65625 
L 53.46875 21.828125 
L 31.6875 21.828125 
L 31.6875 0 
L 24.859375 0 
L 24.859375 21.828125 
L 2.984375 21.828125 
L 2.984375 28.65625 
L 24.859375 28.65625 
z
" id="Times-Roman-43"/>
     </defs>
     <g transform="translate(32.518 35.589237)scale(0.0694 -0.0694)">
      <use xlink:href="#Times-Roman-115"/>
      <use x="38.916016" xlink:href="#Times-Roman-117"/>
      <use x="88.916016" xlink:href="#Times-Roman-112"/>
      <use x="138.916016" xlink:href="#Times-Roman-101"/>
      <use x="183.300781" xlink:href="#Times-Roman-114"/>
      <use x="216.601562" xlink:href="#Times-Roman-118"/>
      <use x="266.601562" xlink:href="#Times-Roman-105"/>
      <use x="294.384766" xlink:href="#Times-Roman-115"/>
      <use x="333.300781" xlink:href="#Times-Roman-101"/>
      <use x="377.685547" xlink:href="#Times-Roman-100"/>
      <use x="427.685547" xlink:href="#Times-Roman-32"/>
      <use x="452.685547" xlink:href="#Times-Roman-43"/>
      <use x="509.082031" xlink:href="#Times-Roman-32"/>
      <use x="534.082031" xlink:href="#Times-Roman-54"/>
      <use x="584.082031" xlink:href="#Times-Roman-48"/>
      <use x="634.082031" xlink:href="#Times-Roman-107"/>
      <use x="684.082031" xlink:href="#Times-Roman-32"/>
      <use x="709.082031" xlink:href="#Times-Roman-102"/>
      <use x="742.382812" xlink:href="#Times-Roman-105"/>
      <use x="770.166016" xlink:href="#Times-Roman-110"/>
      <use x="820.166016" xlink:href="#Times-Roman-101"/>
      <use x="864.550781" xlink:href="#Times-Roman-45"/>
      <use x="897.851562" xlink:href="#Times-Roman-116"/>
      <use x="925.634766" xlink:href="#Times-Roman-117"/>
      <use x="975.634766" xlink:href="#Times-Roman-110"/>
      <use x="1025.634766" xlink:href="#Times-Roman-101"/>
      <use x="1070.019531" xlink:href="#Times-Roman-100"/>
     </g>
    </g>
    <g id="patch_7">
     <path d="M 13.086 45.428856 
L 26.966 45.428856 
L 26.966 40.570856 
L 13.086 40.570856 
z
" style="fill:#cc79a7;"/>
    </g>
    <g id="text_4">
     <!-- supervised -->
     <g transform="translate(32.518 45.428856)scale(0.0694 -0.0694)">
      <use xlink:href="#Times-Roman-115"/>
      <use x="38.916016" xlink:href="#Times-Roman-117"/>
      <use x="88.916016" xlink:href="#Times-Roman-112"/>
      <use x="138.916016" xlink:href="#Times-Roman-101"/>
      <use x="183.300781" xlink:href="#Times-Roman-114"/>
      <use x="216.601562" xlink:href="#Times-Roman-118"/>
      <use x="266.601562" xlink:href="#Times-Roman-105"/>
      <use x="294.384766" xlink:href="#Times-Roman-115"/>
      <use x="333.300781" xlink:href="#Times-Roman-101"/>
      <use x="377.685547" xlink:href="#Times-Roman-100"/>
     </g>
    </g>
    <g id="patch_8">
     <path d="M 13.086 55.268475 
L 26.966 55.268475 
L 26.966 50.410475 
L 13.086 50.410475 
z
" style="fill:#f0e442;"/>
    </g>
    <g id="text_5">
     <!-- zero-shot -->
     <defs>
      <path d="M 40.484375 44.875 
L 40.484375 43.703125 
L 13.375 3.078125 
L 27.203125 3.078125 
Q 34.375 3.078125 36.28125 4.90625 
Q 38.1875 6.734375 40.046875 13.875 
L 41.75 13.53125 
L 40.375 0 
L 2.546875 0 
L 2.546875 1.125 
L 29.25 41.890625 
L 16.15625 41.890625 
Q 10.890625 41.890625 9.28125 40.078125 
Q 7.671875 38.28125 7.03125 33.0625 
L 5.328125 33.0625 
L 5.515625 44.875 
z
M 22.265625 45.796875 
z
" id="Times-Roman-122"/>
      <path d="M 2.546875 22.65625 
Q 2.546875 32.375 8.71875 39.078125 
Q 14.890625 45.796875 24.609375 45.796875 
Q 34.28125 45.796875 40.625 39.453125 
Q 46.96875 33.109375 46.96875 22.5625 
Q 46.96875 12.84375 40.8125 5.65625 
Q 34.671875 -1.515625 24.90625 -1.515625 
Q 15.53125 -1.515625 9.03125 5.359375 
Q 2.546875 12.25 2.546875 22.65625 
z
M 23.25 42.875 
Q 19.390625 42.875 16.546875 40.328125 
Q 11.671875 35.890625 11.671875 25 
Q 11.671875 16.3125 15.59375 8.78125 
Q 19.53125 1.265625 26.515625 1.265625 
Q 31.984375 1.265625 34.9375 6.296875 
Q 37.890625 11.328125 37.890625 19.484375 
Q 37.890625 27.9375 34.125 35.40625 
Q 30.375 42.875 23.25 42.875 
z
M 25.046875 45.796875 
z
" id="Times-Roman-111"/>
      <path d="M 0.875 1.375 
Q 4.890625 1.90625 6.125 3.34375 
Q 7.375 4.78125 7.375 10.15625 
L 7.375 57.03125 
Q 7.375 59.765625 6.65625 61.0625 
Q 5.953125 62.359375 3.21875 62.359375 
Q 2.6875 62.359375 2.171875 62.28125 
Q 1.65625 62.203125 1.03125 62.109375 
L 1.03125 63.875 
Q 3.171875 64.5 6.3125 65.40625 
Q 9.46875 66.3125 10.6875 66.703125 
L 15.375 68.171875 
L 15.484375 67.828125 
L 15.484375 37.84375 
Q 18.5625 41.359375 20.953125 43.015625 
Q 25.25 45.953125 30.21875 45.953125 
Q 38.140625 45.953125 41.015625 39.3125 
Q 42.578125 35.796875 42.578125 30.078125 
L 42.578125 10.15625 
Q 42.578125 4.984375 43.765625 3.421875 
Q 44.96875 1.859375 48.6875 1.375 
L 48.6875 0 
L 27.546875 0 
L 27.546875 1.375 
Q 31.78125 1.953125 33 3.359375 
Q 34.234375 4.78125 34.234375 10.15625 
L 34.234375 29.9375 
Q 34.234375 34.671875 32.640625 37.59375 
Q 31.0625 40.53125 26.65625 40.53125 
Q 22.859375 40.53125 19.28125 37.796875 
Q 15.71875 35.0625 15.71875 34.234375 
L 15.71875 10.15625 
Q 15.71875 4.6875 16.984375 3.3125 
Q 18.265625 1.953125 22.40625 1.375 
L 22.40625 0 
L 0.875 0 
z
" id="Times-Roman-104"/>
     </defs>
     <g transform="translate(32.518 55.268475)scale(0.0694 -0.0694)">
      <use xlink:href="#Times-Roman-122"/>
      <use x="44.384766" xlink:href="#Times-Roman-101"/>
      <use x="88.769531" xlink:href="#Times-Roman-114"/>
      <use x="122.070312" xlink:href="#Times-Roman-111"/>
      <use x="172.070312" xlink:href="#Times-Roman-45"/>
      <use x="205.371094" xlink:href="#Times-Roman-115"/>
      <use x="244.287109" xlink:href="#Times-Roman-104"/>
      <use x="294.287109" xlink:href="#Times-Roman-111"/>
      <use x="344.287109" xlink:href="#Times-Roman-116"/>
     </g>
    </g>
    <g id="patch_9">
     <path d="M 13.086 65.108094 
L 26.966 65.108094 
L 26.966 60.250094 
L 13.086 60.250094 
z
" style="fill:#56b4e9;"/>
    </g>
    <g id="text_6">
     <!-- reference summaries -->
     <defs>
      <path d="M 24.859375 46.046875 
Q 30.953125 46.046875 35.375 42.890625 
Q 39.796875 39.75 39.796875 35.984375 
Q 39.796875 34.375 38.671875 32.984375 
Q 37.546875 31.59375 35.203125 31.59375 
Q 33.5 31.59375 32.203125 32.765625 
Q 30.90625 33.9375 30.328125 36.1875 
L 29.734375 38.53125 
Q 29.109375 41.109375 27.546875 42.1875 
Q 25.921875 43.21875 23.296875 43.21875 
Q 17.71875 43.21875 13.890625 38.359375 
Q 10.0625 33.5 10.0625 25.4375 
Q 10.0625 18.0625 14.28125 12.203125 
Q 18.5 6.34375 25.6875 6.34375 
Q 30.765625 6.34375 34.71875 9.671875 
Q 36.96875 11.578125 39.796875 15.71875 
L 41.15625 14.890625 
Q 38.375 9.03125 35.296875 5.609375 
Q 29.390625 -0.921875 21.625 -0.921875 
Q 14.015625 -0.921875 8.15625 5.078125 
Q 2.296875 11.078125 2.296875 21.390625 
Q 2.296875 31.5 8.6875 38.765625 
Q 15.09375 46.046875 24.859375 46.046875 
z
M 22.703125 46.046875 
z
" id="Times-Roman-99"/>
      <path d="M 1.609375 1.265625 
Q 5.421875 1.609375 6.6875 2.546875 
Q 8.640625 3.953125 8.640625 8.203125 
L 8.640625 33.453125 
Q 8.640625 37.0625 7.6875 38.1875 
Q 6.734375 39.3125 4.546875 39.3125 
Q 3.515625 39.3125 3 39.203125 
Q 2.484375 39.109375 1.8125 38.875 
L 1.8125 40.578125 
L 5.328125 41.75 
Q 7.234375 42.390625 11.578125 44.046875 
Q 15.921875 45.703125 16.15625 45.703125 
Q 16.40625 45.703125 16.453125 45.453125 
Q 16.5 45.21875 16.5 44.53125 
L 16.5 37.9375 
Q 21.34375 42.328125 24.859375 44.015625 
Q 28.375 45.703125 32.078125 45.703125 
Q 37.109375 45.703125 40.09375 42.28125 
Q 41.65625 40.4375 42.671875 37.25 
Q 46.296875 40.921875 48.96875 42.671875 
Q 53.609375 45.703125 58.453125 45.703125 
Q 66.3125 45.703125 68.953125 39.3125 
Q 70.453125 35.6875 70.453125 27.875 
L 70.453125 7.625 
Q 70.453125 4.15625 71.984375 2.90625 
Q 73.53125 1.65625 77.546875 1.265625 
L 77.546875 0 
L 55.515625 0 
L 55.515625 1.375 
Q 59.765625 1.765625 61.109375 3.078125 
Q 62.453125 4.390625 62.453125 8.453125 
L 62.453125 29.5 
Q 62.453125 34.234375 61.421875 36.46875 
Q 59.625 40.484375 54.34375 40.484375 
Q 51.171875 40.484375 48.046875 38.375 
Q 46.234375 37.15625 43.609375 34.46875 
L 43.609375 9.46875 
Q 43.609375 5.515625 45 3.46875 
Q 46.390625 1.421875 50.875 1.265625 
L 50.875 0 
L 28.46875 0 
L 28.46875 1.265625 
Q 33.109375 1.859375 34.375 3.515625 
Q 35.640625 5.171875 35.640625 11.671875 
L 35.640625 25.34375 
Q 35.640625 32.859375 34.671875 35.6875 
Q 33.0625 40.484375 27.828125 40.484375 
Q 24.859375 40.484375 21.96875 38.84375 
Q 19.09375 37.203125 16.890625 34.578125 
L 16.890625 7.859375 
Q 16.890625 4.15625 18.1875 2.734375 
Q 19.484375 1.3125 23.828125 1.265625 
L 23.828125 0 
L 1.609375 0 
z
" id="Times-Roman-109"/>
     </defs>
     <g transform="translate(32.518 65.108094)scale(0.0694 -0.0694)">
      <use xlink:href="#Times-Roman-114"/>
      <use x="33.300781" xlink:href="#Times-Roman-101"/>
      <use x="77.685547" xlink:href="#Times-Roman-102"/>
      <use x="110.986328" xlink:href="#Times-Roman-101"/>
      <use x="155.371094" xlink:href="#Times-Roman-114"/>
      <use x="188.671875" xlink:href="#Times-Roman-101"/>
      <use x="233.056641" xlink:href="#Times-Roman-110"/>
      <use x="283.056641" xlink:href="#Times-Roman-99"/>
      <use x="327.441406" xlink:href="#Times-Roman-101"/>
      <use x="371.826172" xlink:href="#Times-Roman-32"/>
      <use x="396.826172" xlink:href="#Times-Roman-115"/>
      <use x="435.742188" xlink:href="#Times-Roman-117"/>
      <use x="485.742188" xlink:href="#Times-Roman-109"/>
      <use x="563.525391" xlink:href="#Times-Roman-109"/>
      <use x="641.308594" xlink:href="#Times-Roman-97"/>
      <use x="685.693359" xlink:href="#Times-Roman-114"/>
      <use x="718.994141" xlink:href="#Times-Roman-105"/>
      <use x="746.777344" xlink:href="#Times-Roman-101"/>
      <use x="791.162109" xlink:href="#Times-Roman-115"/>
     </g>
    </g>
   </g>
  </g>
 </g>
</svg>
